<svg width="58" height="66" viewBox="0 0 58 66" fill="none" xmlns="http://www.w3.org/2000/svg">
<path d="M30.4834 64.7779H47.6134V60.0879C47.6134 59.4779 47.7634 58.8679 48.0634 58.3379L55.8933 44.1479C56.7733 42.5579 57.2334 40.7579 57.2334 38.9279V16.6979C57.2334 15.6779 56.4334 14.8479 55.4534 14.8479H53.6134C52.6234 14.8479 51.8134 15.6879 51.8134 16.7179V30.9079C51.8134 32.0479 51.5033 33.1579 50.9333 34.1179L44.9233 44.1379C44.3333 45.1179 43.1033 45.4379 42.1333 44.8579L41.7334 44.6179C40.7434 44.0279 40.4134 42.7079 40.9934 41.6779L46.3634 32.2479C46.8734 31.3579 46.6033 30.1979 45.7533 29.6579L43.9734 28.5079C43.0134 27.8879 41.7534 28.2279 41.1934 29.2379L31.0734 47.7479C30.6934 48.4379 30.5033 49.2079 30.5033 49.9979V64.7779H30.4834Z" stroke="#272525" stroke-miterlimit="10" stroke-linecap="round"/>
<path d="M31.1133 60.4279H42.7133" stroke="#272525" stroke-miterlimit="10" stroke-linecap="round"/>
<path d="M27.4531 64.9879H10.3231V60.2979C10.3231 59.6879 10.1732 59.0779 9.87317 58.5479L2.04309 44.3579C1.16309 42.7679 0.703125 40.9679 0.703125 39.1379V16.9079C0.703125 15.8879 1.50315 15.0579 2.48315 15.0579H4.32312C5.31312 15.0579 6.12317 15.8979 6.12317 16.9279V31.1179C6.12317 32.2579 6.43305 33.3679 7.00305 34.3279L13.0131 44.3479C13.6031 45.3279 14.8331 45.6479 15.8031 45.0679L16.2031 44.8279C17.1931 44.2379 17.5231 42.9179 16.9431 41.8879L11.5731 32.4579C11.0631 31.5679 11.3331 30.4079 12.1831 29.8679L13.9631 28.7179C14.9231 28.0979 16.1832 28.4379 16.7432 29.4479L26.8632 47.9579C27.2432 48.6479 27.4331 49.4179 27.4331 50.2079V64.9879H27.4531Z" stroke="#272525" stroke-miterlimit="10" stroke-linecap="round"/>
<path d="M26.8229 60.6279H15.2129" stroke="#272525" stroke-miterlimit="10" stroke-linecap="round"/>
<path d="M29.743 8.10787C30.363 4.91787 31.9429 2.66787 34.7529 1.58787C37.7129 0.447873 40.493 0.957873 42.833 3.18787C45.193 5.44787 45.863 8.30787 45.073 11.5179C44.313 14.5579 42.7229 17.1479 40.7729 19.5079C37.7629 23.1579 34.133 26.0479 30.213 28.5679C29.983 28.7179 29.523 28.7379 29.313 28.5979C24.543 25.4979 20.153 21.9579 16.923 17.0779C15.623 15.1179 14.643 13.0079 14.223 10.6379C13.463 6.34787 16.023 2.28787 20.193 1.24787C24.153 0.257873 28.273 2.75787 29.423 6.83787C29.523 7.19787 29.6129 7.56787 29.7529 8.10787H29.743Z" stroke="#272525" stroke-miterlimit="10" stroke-linecap="round"/>
</svg>
