<svg width="60" height="70" viewBox="0 0 60 70" fill="none" xmlns="http://www.w3.org/2000/svg">
<path d="M58.8832 33.09V33.05C58.5632 31.45 57.9532 27.1 56.8732 22.29C55.7832 17.46 54.2631 12.14 51.9531 8.3C51.1631 6.99 50.1332 5.76 48.9132 4.76C47.7032 3.78 46.2932 3.03 44.7332 2.75C43.7532 2.51 42.5031 2.33 41.0931 2.16C38.9531 1.92 36.4732 1.74 34.3932 1.59C33.3532 1.52 32.4132 1.45 31.6632 1.39C30.9232 1.33 30.3432 1.27 30.1532 1.24C29.4032 1.11 28.5932 1.01 27.7532 1C26.6732 1 25.5231 1.17 24.4331 1.72C23.8831 1.99 23.4432 2.41 23.1532 2.85C22.7132 3.51 22.5432 4.19 22.4132 4.77C22.2832 5.35 22.1931 5.86 22.0731 6.18C21.5031 7.76 20.8631 9.49 20.8531 11.46C20.8531 11.68 20.8532 11.9 20.8832 12.13C20.9432 12.9 21.1331 13.72 21.5931 14.48C21.9531 15.05 22.4332 15.58 23.0132 16.06C23.0132 16.09 23.0132 16.11 23.0132 16.14C23.0132 16.41 22.9332 16.78 22.7832 17.25C22.6432 17.72 22.4532 18.28 22.3832 18.95V19.03C22.3832 19.03 22.3832 19.12 22.3832 19.18C22.3832 19.7 22.4931 20.28 22.8331 20.82C23.1631 21.37 23.7532 21.85 24.4832 22.04C24.8732 22.14 25.2432 22.19 25.6132 22.19C27.2732 22.17 28.6532 21.31 29.4832 20.22C29.6632 19.97 29.8332 19.71 29.9832 19.45C30.2132 19.51 30.4431 19.55 30.6731 19.6C31.5131 19.76 32.3231 19.81 33.0731 19.81C34.3631 19.81 35.5032 19.66 36.2732 19.6C36.3332 20.44 36.3632 21.3 36.3632 22.17C36.3632 24.05 36.2031 25.94 35.8431 27.67C35.3631 29.97 34.5331 32.63 33.8231 35.41C33.6131 36.24 33.4132 37.08 33.2332 37.93C31.9332 36.58 30.2732 35.51 28.4932 34.7C25.6032 33.39 22.3431 32.72 19.4631 32.71C12.5031 32.7 6.1332 36.2 2.7832 42.41C1.8932 44.06 1.26313 45.95 0.963135 47.79C0.793135 48.86 0.703125 49.95 0.703125 51.03C0.703125 56.77 3.17317 62.47 8.25317 65.81C9.76317 66.8 11.5631 67.65 13.3531 68.12C15.4631 68.67 17.8231 69.02 20.0531 69.02C20.2231 69.02 20.3832 69.02 20.5432 69.02C23.5132 68.95 26.3032 68.28 29.0032 67.65C31.7132 67.02 34.3331 66.42 36.9531 66.36C37.1431 66.36 37.3332 66.36 37.5232 66.36C37.8232 66.36 38.1231 66.36 38.4331 66.37L39.0232 66.43C39.0232 66.43 39.1132 66.43 39.1532 66.43C39.2432 66.43 39.3332 66.43 39.4132 66.4C41.5532 66.51 43.7432 66.75 46.0032 66.81C46.3232 66.81 46.6432 66.82 46.9832 66.82C49.0032 66.82 51.4132 66.63 53.3932 65.08C54.4032 64.28 55.0731 63.26 55.5531 62.24C56.0331 61.22 56.3331 60.18 56.6031 59.24C58.4231 53.19 59.5232 47.21 59.5232 41.07C59.5232 38.43 59.3232 35.77 58.8832 33.06V33.09ZM27.4431 18.74C27.0831 19.24 26.2731 19.72 25.5931 19.7C25.4331 19.7 25.2832 19.68 25.1332 19.64C25.0032 19.6 25.0131 19.58 24.9731 19.53C24.9431 19.48 24.8932 19.35 24.9032 19.21C24.9432 18.89 25.0631 18.48 25.2131 18C25.2431 17.89 25.2831 17.77 25.3131 17.65H25.3331C26.0131 18.04 26.7432 18.38 27.5032 18.69C27.4932 18.71 27.4731 18.73 27.4631 18.75L27.4431 18.74ZM54.1731 58.55V58.57C53.9031 59.5 53.6232 60.42 53.2532 61.21C52.8832 62.01 52.4231 62.66 51.8131 63.14C50.6331 64.09 48.8331 64.35 46.9631 64.34C46.6631 64.34 46.3531 64.34 46.0531 64.33C43.6331 64.27 41.1531 63.96 38.5831 63.88L30.9631 63.11C30.2731 63.04 29.6531 63.55 29.5831 64.24C29.5631 64.49 29.6031 64.72 29.7131 64.93C29.2831 65.03 28.8531 65.13 28.4231 65.23C25.7131 65.86 23.0932 66.47 20.4832 66.53C20.3432 66.53 20.1932 66.53 20.0432 66.53C18.0732 66.53 15.8832 66.22 13.9832 65.71C12.5232 65.33 10.9232 64.58 9.63318 63.73C5.36318 60.93 3.22314 56.11 3.22314 51.06C3.22314 50.12 3.30312 49.17 3.45312 48.22C3.70312 46.67 4.26317 45.01 5.00317 43.64C7.90317 38.28 13.3231 35.28 19.4631 35.27C21.9531 35.27 24.9331 35.88 27.4531 37.03C29.8331 38.11 31.7631 39.65 32.6731 41.43C32.5831 42.29 32.5232 43.14 32.5232 44C32.5232 45.87 32.7831 47.72 33.4631 49.48C34.1431 51.24 35.2532 52.9 36.8632 54.33C37.1032 54.54 37.4031 54.65 37.7031 54.65C38.0531 54.65 38.4032 54.51 38.6532 54.23C39.1132 53.71 39.0632 52.91 38.5432 52.45C38.2332 52.18 37.9531 51.9 37.6931 51.61C36.8331 50.67 36.2331 49.66 35.8231 48.58C35.2831 47.18 35.0531 45.64 35.0531 44.01C35.0531 43.26 35.1031 42.48 35.1931 41.7C35.2531 41.53 35.2732 41.35 35.2532 41.17C35.4732 39.51 35.8532 37.8 36.2832 36.09C36.6932 34.49 37.1431 32.91 37.5631 31.37C37.8531 30.3 38.1131 29.26 38.3331 28.25C38.7431 26.31 38.9032 24.25 38.9032 22.23C38.9032 21.32 38.8731 20.41 38.8031 19.53C40.2731 19.3 41.4431 18.77 42.3031 18.03C42.7931 18.16 43.2631 18.23 43.7131 18.23H43.7231C44.6431 18.23 45.4731 17.94 46.1031 17.53C47.0732 16.91 47.6432 16.06 48.0132 15.38C48.3732 14.7 48.5232 14.18 48.5432 14.12C48.7332 13.45 48.3332 12.75 47.6632 12.56C46.9932 12.37 46.3032 12.76 46.1132 13.43C46.0932 13.51 45.8831 14.15 45.4731 14.69C45.2631 14.98 45.0031 15.24 44.7231 15.41C44.4731 15.56 44.2132 15.66 43.8732 15.68C44.1032 15.01 44.1931 14.33 44.1931 13.71C44.1931 13.04 44.0932 12.43 43.9132 11.89C43.7232 11.35 43.5232 10.89 43.0332 10.45C42.5132 10.03 41.9431 9.93 41.4431 9.92C40.7331 9.92 40.0431 10.13 39.4331 10.56C39.1231 10.78 38.8332 11.06 38.6132 11.42C38.3932 11.78 38.2532 12.24 38.2532 12.72C38.2532 13.19 38.3832 13.66 38.6132 14.08C38.9432 14.7 39.7031 14.93 40.3231 14.6C40.9431 14.27 41.1731 13.51 40.8431 12.89C40.7831 12.78 40.7832 12.73 40.7832 12.72C40.7932 12.7 40.8732 12.62 41.0032 12.55C41.1332 12.48 41.3231 12.44 41.4331 12.44C41.4731 12.52 41.5131 12.63 41.5531 12.77C41.6231 13.02 41.6731 13.36 41.6731 13.71C41.6731 14.49 41.4431 15.31 40.8431 15.93C40.3431 16.44 39.5331 16.91 38.0831 17.06C36.7131 15.5 36.4232 14.05 36.4132 12.94C36.4132 12.7 36.4331 12.47 36.4531 12.26C36.5331 11.57 36.0431 10.94 35.3531 10.85C34.6632 10.77 34.0331 11.26 33.9431 11.95C33.9031 12.25 33.8832 12.58 33.8832 12.93C33.8832 14.14 34.1631 15.66 35.0731 17.21C34.4931 17.26 33.8932 17.31 33.2532 17.32C32.3932 15.55 32.1332 13.97 32.1232 12.67C32.1232 12.17 32.1631 11.71 32.2231 11.3C32.3231 10.61 31.8432 9.97 31.1532 9.87C30.4632 9.77 29.8231 10.25 29.7231 10.94C29.6431 11.46 29.6031 12.04 29.6031 12.67C29.6031 13.94 29.8032 15.41 30.3732 16.99C29.6632 16.81 28.9331 16.56 28.2231 16.26C28.2231 16.1 28.1932 15.93 28.1332 15.77C27.6632 14.63 27.4932 13.5 27.4932 12.45C27.4932 11.17 27.7532 10 28.0332 9.15C28.2432 8.49 27.8831 7.77 27.2231 7.56C26.5631 7.35 25.8432 7.71 25.6332 8.37C25.3032 9.41 24.9731 10.82 24.9731 12.44C24.9731 13.11 25.0332 13.81 25.1632 14.54C24.4732 14.03 23.9732 13.53 23.7832 13.19C23.5932 12.87 23.4631 12.43 23.4231 11.95C23.4131 11.79 23.4032 11.64 23.4032 11.48C23.4032 10.08 23.8931 8.64 24.4731 7.06C24.7731 6.21 24.8532 5.43 25.0232 4.88C25.1032 4.61 25.1932 4.41 25.2832 4.28C25.3732 4.15 25.4532 4.07 25.6132 3.99C26.2432 3.67 26.9732 3.54 27.7932 3.54C28.4232 3.54 29.0932 3.62 29.7532 3.74C30.2832 3.83 31.1431 3.89 32.3231 3.98C34.0731 4.11 36.4331 4.26 38.6731 4.46C40.9031 4.66 43.0431 4.92 44.2031 5.22L44.3031 5.24C45.3431 5.41 46.3932 5.94 47.3531 6.72C48.3131 7.5 49.1731 8.53 49.8231 9.61C51.8631 12.98 53.3931 18.15 54.4431 22.85C55.4931 27.55 56.0831 31.75 56.4231 33.51C56.8331 36.08 57.0332 38.6 57.0332 41.1C57.0332 46.94 55.9831 52.66 54.2131 58.55H54.1731ZM29.1731 49.91C25.7631 52.8 22.1832 53.84 18.7932 53.85C14.2932 53.86 10.0932 51.92 7.61316 49.84C7.07316 49.39 6.28313 49.46 5.83313 50C5.38313 50.53 5.45316 51.33 5.99316 51.78C8.93316 54.22 13.5632 56.37 18.7932 56.38H18.8231C22.7331 56.38 26.9631 55.11 30.8131 51.84C31.3431 51.39 31.4131 50.59 30.9631 50.06C30.5131 49.53 29.7131 49.46 29.1831 49.92L29.1731 49.91ZM51.3531 57C50.6731 56.83 49.9931 57.24 49.8231 57.92C49.4831 59.2 48.8832 59.71 48.2332 60.06C47.5732 60.4 46.8232 60.46 46.5032 60.46C46.4432 60.46 46.4032 60.46 46.3732 60.46H46.3531C45.6632 60.4 45.0532 60.91 44.9932 61.6C44.9332 62.29 45.4432 62.91 46.1332 62.97C46.1632 62.97 46.3032 62.98 46.5132 62.98C47.0732 62.98 48.1932 62.91 49.3832 62.31C50.5732 61.72 51.8132 60.49 52.2832 58.53C52.4532 57.85 52.0432 57.17 51.3632 57H51.3531Z" fill="black" stroke="#DEDD3C" stroke-width="0.75" stroke-miterlimit="10"/>
</svg>
