<svg width="39" height="63" viewBox="0 0 39 63" fill="none" xmlns="http://www.w3.org/2000/svg">
<path d="M18.8574 61.9886C25.8991 61.9886 31.6074 58.7292 31.6074 54.7086C31.6074 50.688 25.8991 47.4286 18.8574 47.4286C11.8158 47.4286 6.10742 50.688 6.10742 54.7086C6.10742 58.7292 11.8158 61.9886 18.8574 61.9886Z" stroke="#272525" stroke-miterlimit="10" stroke-linecap="round"/>
<path d="M19.0273 54.2786C13.9873 46.6386 8.96714 39.2286 4.15714 31.6586C2.27714 28.6986 0.997324 25.3386 0.847324 21.6686C0.357324 9.64857 9.30725 0.418575 20.7672 1.02857C30.9772 1.57857 39.2772 11.5086 37.9672 22.0786C37.5972 25.0886 36.3472 28.2186 34.7672 30.7686C30.6472 37.4086 26.1272 43.7686 21.7672 50.2386C20.9272 51.4886 20.0673 52.7286 19.0273 54.2586V54.2786ZM19.6671 13.9286C14.9771 13.8286 11.1673 17.6886 11.0573 22.6486C10.9473 27.5186 14.7371 31.6286 19.3971 31.6786C23.9671 31.7386 27.7972 27.8486 27.9372 23.0186C28.0772 18.1386 24.3272 14.0186 19.6772 13.9186L19.6671 13.9286Z" fill="#A1C86E" stroke="#272525" stroke-miterlimit="10" stroke-linecap="round"/>
</svg>
