<svg width="78" height="68" viewBox="0 0 78 68" fill="none" xmlns="http://www.w3.org/2000/svg">
<g clip-path="url(#clip0_1_954)">
<path d="M48.0057 68.0002H31.8487C15.3098 68.0002 1.85547 54.338 1.85547 37.5448V29.4608C1.85547 28.7264 2.4415 28.1313 3.16478 28.1313H76.6905C77.4138 28.1313 77.9999 28.7264 77.9999 29.4608V37.5448C77.9999 54.338 64.5446 68.0002 48.0057 68.0002ZM4.4732 30.7902V37.5448C4.4732 52.871 16.7537 65.3413 31.8478 65.3413H48.0048C63.0989 65.3413 75.3803 52.871 75.3803 37.5448V30.7902H4.4732Z" fill="black"/>
<path d="M57.5111 30.6519C56.9268 30.6519 56.395 30.2531 56.2442 29.6525C56.0455 28.8668 55.9453 28.0562 55.9453 27.2421C55.9453 21.8986 60.2263 17.5518 65.4889 17.5518C70.7514 17.5518 75.0333 21.8986 75.0333 27.2421C75.0333 28.0022 74.9466 28.7604 74.7733 29.4948C74.6053 30.209 73.9046 30.6528 73.1967 30.4795C72.4942 30.309 72.0598 29.5929 72.2269 28.8787C72.3515 28.3469 72.4147 27.7968 72.4147 27.243C72.4147 23.3656 69.3076 20.2107 65.488 20.2107C61.6684 20.2107 58.5621 23.3656 58.5621 27.243C58.5621 27.8335 58.6344 28.423 58.7789 28.9924C58.9576 29.7038 58.5369 30.4273 57.8361 30.6106C57.7269 30.639 57.6176 30.6519 57.5102 30.6519H57.5111Z" fill="black"/>
<path d="M44.1302 30.6517C43.5271 30.6517 42.9835 30.2262 42.8516 29.6028C42.7099 28.9335 42.6367 28.2458 42.6367 27.5591C42.6367 22.2376 46.9006 17.9082 52.1414 17.9082C55.1294 17.9082 57.8844 19.2927 59.6994 21.7068C60.1382 22.2908 60.0289 23.1251 59.4538 23.5698C58.8777 24.0154 58.0559 23.9036 57.6189 23.3204C56.3024 21.5702 54.3068 20.5671 52.1414 20.5671C48.3444 20.5671 45.2544 23.7037 45.2544 27.56C45.2544 28.0579 45.3068 28.5566 45.4098 29.0426C45.5624 29.7605 45.1136 30.4674 44.4066 30.6223C44.3135 30.6434 44.2205 30.6526 44.1293 30.6526L44.1302 30.6517Z" fill="black"/>
<path d="M51.527 20.3811C50.9473 20.3811 50.4172 19.9878 50.2619 19.3909C50.0723 18.6611 49.9766 17.9028 49.9766 17.1381C49.9766 12.2751 53.872 8.31885 58.6614 8.31885C63.4508 8.31885 67.3471 12.2751 67.3471 17.1381C67.3471 17.702 67.2938 18.2668 67.19 18.8169C67.0518 19.5376 66.3719 20.0134 65.6558 19.8695C64.9461 19.7301 64.482 19.0324 64.6192 18.3117C64.6933 17.9276 64.7294 17.5333 64.7294 17.1372C64.7294 13.7403 62.0069 10.9768 58.6623 10.9768C55.3177 10.9768 52.5961 13.7412 52.5961 17.1372C52.5961 17.6727 52.6638 18.2035 52.7957 18.7124C52.9799 19.422 52.5627 20.1491 51.8629 20.3362C51.7518 20.3664 51.6389 20.3802 51.5288 20.3802L51.527 20.3811Z" fill="black"/>
<path d="M37.0996 30.6518C36.6797 30.6518 36.2671 30.4473 36.0143 30.0668C34.5767 27.9067 33.8164 25.3826 33.8164 22.7649C33.8164 15.5648 39.5864 9.70605 46.6775 9.70605C47.0947 9.70605 47.5073 9.72623 47.9164 9.76657C48.6351 9.83808 49.1616 10.4881 49.0912 11.2189C49.0207 11.9496 48.3859 12.4823 47.6608 12.4117C47.3376 12.3796 47.0098 12.364 46.6784 12.364C41.0303 12.364 36.435 17.0299 36.435 22.7649C36.435 24.8499 37.0391 26.8605 38.1832 28.5778C38.5877 29.1866 38.4306 30.0127 37.8328 30.4235C37.608 30.5784 37.3534 30.6518 37.1005 30.6518H37.0996Z" fill="black"/>
<path d="M7.00989 30.7076C6.45275 30.7076 5.93715 30.3445 5.76107 29.7769C5.56061 29.1278 5.46038 28.4548 5.46219 27.7809C3.34742 27.4591 1.51438 26.0132 0.724271 23.9109C-0.000818519 21.979 0.306193 19.8207 1.4611 18.175C1.01322 17.6404 0.656548 17.0316 0.407327 16.3724C-0.178705 14.8128 -0.130847 13.1148 0.540967 11.5919C1.03128 10.4816 1.80965 9.56105 2.79118 8.91375C2.77674 8.87799 2.76319 8.84315 2.75055 8.80831C1.59113 5.7194 3.12258 2.24908 6.1638 1.07182C9.20412 -0.10451 12.6228 1.44865 13.7831 4.53665C13.7967 4.5724 13.8093 4.60724 13.8219 4.64392C14.9823 4.46421 16.1652 4.62283 17.2569 5.12069C18.7558 5.80283 19.9044 7.03693 20.4904 8.59651C20.7378 9.25665 20.8706 9.95163 20.8868 10.654C22.8291 11.1014 24.4734 12.5042 25.1985 14.4369C25.9877 16.5375 25.5688 18.8544 24.2026 20.5249C24.7326 21.1245 25.1516 21.8195 25.4387 22.586C26.516 25.4521 25.5335 28.673 23.0504 30.4178C22.4553 30.8332 21.6399 30.6837 21.2291 30.0804C20.8182 29.4771 20.9663 28.6492 21.5614 28.2311C23.0495 27.185 23.6382 25.2541 22.9917 23.5331C22.7036 22.7657 22.1952 22.1156 21.5225 21.6545C21.1649 21.4097 20.9491 21.0017 20.9455 20.5634C20.9428 20.1261 21.1514 19.7135 21.5045 19.4641C22.7957 18.5472 23.3095 16.8694 22.7515 15.384C22.244 14.0298 20.8968 13.1331 19.4926 13.1607C19.0818 13.1607 18.7107 12.9828 18.4614 12.6765C18.2077 12.3639 18.1084 11.9513 18.1914 11.5561C18.3332 10.8758 18.2817 10.1799 18.0434 9.54363C17.7065 8.64786 17.0474 7.93912 16.185 7.5467C15.3245 7.1552 14.3637 7.12587 13.4824 7.46877C13.4481 7.48894 13.3885 7.5247 13.3515 7.5412C12.9641 7.71357 12.5162 7.68332 12.1523 7.46235C11.7893 7.24047 11.5537 6.85264 11.5221 6.42355C11.4932 6.04488 11.4345 5.7469 11.336 5.48377C10.6895 3.76373 8.78514 2.90096 7.09567 3.5556C5.40349 4.21116 4.55109 6.14207 5.19671 7.86119C5.29514 8.12249 5.44684 8.38563 5.67439 8.6882C5.93174 9.03019 6.0112 9.47762 5.88568 9.88837C5.76017 10.301 5.44593 10.6246 5.04321 10.7585C5.00348 10.7722 4.87164 10.8071 4.8292 10.8162C4.01381 11.1353 3.31672 11.8046 2.93024 12.6793C2.54467 13.554 2.51758 14.5286 2.85349 15.4244C3.09278 16.0598 3.51086 16.6145 4.06348 17.0252C4.38494 17.2654 4.58088 17.6395 4.59623 18.0439C4.61158 18.4491 4.44634 18.8379 4.14384 19.1028C3.05305 20.0591 2.66206 21.6105 3.16953 22.9637C3.72847 24.45 5.2247 25.354 6.77512 25.1651C7.20674 25.1138 7.63023 25.2797 7.91467 25.6071C8.19911 25.9362 8.30566 26.3855 8.20001 26.8109C8.02122 27.5297 8.04018 28.2788 8.2569 28.9793C8.47361 29.6807 8.08985 30.4261 7.40088 30.6461C7.26995 30.6874 7.13811 30.7076 7.00808 30.7076H7.00989Z" fill="black"/>
<path d="M16.7707 30.6515C16.2442 30.6515 15.7467 30.3269 15.5471 29.796L8.69173 11.5376C8.43439 10.8509 8.7721 10.0835 9.44843 9.8222C10.123 9.56272 10.8805 9.9038 11.1379 10.5905L17.9942 28.8489C18.2515 29.5357 17.9138 30.3031 17.2375 30.5644C17.084 30.624 16.9269 30.6515 16.7716 30.6515H16.7707Z" fill="black"/>
<path d="M12.0036 17.9521C11.8257 17.9521 11.6433 17.9145 11.4699 17.8357C10.8098 17.5368 10.5146 16.7492 10.8098 16.0799L11.8898 13.6291C12.1842 12.9607 12.9571 12.6591 13.619 12.9598C14.2782 13.2587 14.5744 14.0463 14.2782 14.7156L13.1982 17.1664C12.9815 17.6597 12.5029 17.9521 12.0027 17.9521H12.0036Z" fill="black"/>
<path d="M14.6593 25.0297C14.4805 25.0297 14.299 24.9921 14.1257 24.9132C13.4665 24.6134 13.1703 23.8268 13.4665 23.1574L15.5912 18.3393C15.8865 17.67 16.6612 17.3702 17.3204 17.67C17.9796 17.9698 18.2758 18.7565 17.9796 19.4258L15.8549 24.2439C15.6373 24.7372 15.1596 25.0297 14.6593 25.0297Z" fill="black"/>
<path d="M12.0027 17.9521C11.8239 17.9521 11.6424 17.9145 11.469 17.8357L9.05536 16.7382C8.39619 16.4384 8.10001 15.6517 8.39619 14.9824C8.69146 14.3131 9.46621 14.0133 10.1254 14.3131L12.539 15.4106C13.1991 15.7104 13.4944 16.4971 13.1991 17.1664C12.9815 17.6596 12.5038 17.9521 12.0036 17.9521H12.0027Z" fill="black"/>
<path d="M14.6598 25.0295C14.481 25.0295 14.2995 24.9919 14.1262 24.9131L9.38011 22.7557C8.72003 22.4559 8.42476 21.6692 8.72003 20.9999C9.01531 20.3306 9.79096 20.0298 10.4492 20.3306L15.1953 22.4879C15.8554 22.7878 16.1506 23.5744 15.8554 24.2437C15.6377 24.737 15.1601 25.0295 14.6598 25.0295Z" fill="black"/>
<path d="M22.0676 13.7704C21.6252 13.7704 21.1926 13.5422 20.9461 13.1277C20.5732 12.4997 20.7709 11.6818 21.3913 11.3032C21.8599 11.0162 22.3638 10.7952 22.8875 10.6458C22.8667 9.94255 22.9643 9.24207 23.1783 8.57001C23.6812 6.982 24.763 5.68831 26.2258 4.9264C27.2931 4.3717 28.4697 4.14523 29.6327 4.26626C29.6427 4.2305 29.6535 4.19566 29.6644 4.1599C30.6639 1.0114 34.0004 -0.725141 37.0931 0.289826C38.5948 0.781264 39.8174 1.83474 40.5371 3.25954C41.2559 4.68435 41.3859 6.30811 40.9019 7.83285C40.8911 7.86953 40.8784 7.9062 40.8658 7.94379C42.1453 8.70112 43.1322 9.91046 43.6108 11.3545C43.842 12.0495 43.4727 12.8032 42.7873 13.0379C42.1019 13.2753 41.3597 12.8976 41.1294 12.2017C40.7673 11.1097 39.9402 10.2809 38.8621 9.92788C38.8223 9.92146 38.7546 9.91229 38.7167 9.90221C38.3067 9.79035 37.9753 9.48412 37.8282 9.07887C37.681 8.67453 37.737 8.22343 37.9762 7.86678C38.1866 7.55504 38.3248 7.28548 38.4088 7.01868C38.6788 6.16966 38.6065 5.26564 38.2065 4.47255C37.8056 3.68038 37.1256 3.09359 36.2886 2.81945C34.5675 2.25466 32.711 3.22378 32.1548 4.97316C32.0708 5.23996 32.0265 5.54253 32.0193 5.91844C32.0103 6.34753 31.7981 6.74545 31.4495 6.98659C31.101 7.22956 30.6603 7.2864 30.263 7.13879C30.2197 7.1232 30.0878 7.0636 30.0472 7.04435C29.2183 6.77571 28.2593 6.85548 27.4186 7.29099C26.578 7.72925 25.9558 8.4719 25.6678 9.38418C25.461 10.0324 25.4456 10.7292 25.6235 11.4022C25.7256 11.7937 25.6479 12.2109 25.4113 12.5364C25.1748 12.8609 24.8045 13.0599 24.4063 13.0746C23.8203 13.0966 23.2442 13.2708 22.7412 13.5788C22.5308 13.709 22.2961 13.7695 22.0658 13.7695L22.0676 13.7704Z" fill="black"/>
<path d="M27.8835 30.6515C27.7508 30.6515 27.6153 30.6304 27.4826 30.5873C26.7945 30.3627 26.4162 29.6145 26.6374 28.9158L32.6169 10.0624C32.8381 9.36284 33.5759 8.97868 34.263 9.20422C34.9511 9.42886 35.3294 10.177 35.1082 10.8757L29.1287 29.7291C28.9508 30.293 28.4361 30.6515 27.8835 30.6515Z" fill="black"/>
<path d="M32.0677 17.4607C31.5918 17.4607 31.134 17.1966 30.9019 16.7382L29.6955 14.3489C29.3651 13.6961 29.6197 12.8947 30.2635 12.5601C30.9064 12.2245 31.6956 12.4831 32.0252 13.1368L33.2316 15.5261C33.5621 16.1789 33.3074 16.9803 32.6636 17.3149C32.4722 17.4149 32.269 17.4616 32.0677 17.4616V17.4607Z" fill="black"/>
<path d="M29.7812 24.6708C29.3053 24.6708 28.8475 24.4068 28.6154 23.9483L26.2424 19.2503C25.9119 18.5975 26.1666 17.7962 26.8104 17.4615C27.4551 17.1269 28.2425 17.3845 28.5721 18.0382L30.9451 22.7362C31.2756 23.389 31.021 24.1904 30.3771 24.525C30.1857 24.625 29.9825 24.6717 29.7812 24.6717V24.6708Z" fill="black"/>
<path d="M66.4873 67.9997H13.1765C12.4532 67.9997 11.8672 67.4047 11.8672 66.6703C11.8672 65.9359 12.4532 65.3408 13.1765 65.3408H66.4873C67.2106 65.3408 67.7966 65.9359 67.7966 66.6703C67.7966 67.4047 67.2106 67.9997 66.4873 67.9997Z" fill="black"/>
<path d="M26.1999 36.1399H11.7116C10.9883 36.1399 10.4023 35.5448 10.4023 34.8104C10.4023 34.076 10.9883 33.481 11.7116 33.481H26.1999C26.9231 33.481 27.5092 34.076 27.5092 34.8104C27.5092 35.5448 26.9231 36.1399 26.1999 36.1399Z" fill="black"/>
<path d="M18.1236 43.362H16.1921C15.4688 43.362 14.8828 42.767 14.8828 42.0326C14.8828 41.2982 15.4688 40.7031 16.1921 40.7031H18.1236C18.8469 40.7031 19.4329 41.2982 19.4329 42.0326C19.4329 42.767 18.8469 43.362 18.1236 43.362Z" fill="black"/>
<path d="M21.0497 48.7717H17.6843C16.961 48.7717 16.375 48.1766 16.375 47.4422C16.375 46.7078 16.961 46.1128 17.6843 46.1128H21.0497C21.773 46.1128 22.359 46.7078 22.359 47.4422C22.359 48.1766 21.773 48.7717 21.0497 48.7717Z" fill="black"/>
</g>
<defs>
<clipPath id="clip0_1_954">
<rect width="78" height="68" fill="white"/>
</clipPath>
</defs>
</svg>
