<svg width="89" height="45" viewBox="0 0 89 45" fill="none" xmlns="http://www.w3.org/2000/svg">
<g clip-path="url(#clip0_1_947)">
<path d="M72.0996 32.8358H2.78133V42.2376H72.0996V32.8358ZM2.05944 30.0903H72.8215C73.384 30.0903 73.8959 30.3144 74.2677 30.6766L74.2773 30.6861L73.2947 31.6561L74.2773 30.6909C74.6491 31.0579 74.8809 31.5655 74.8809 32.1232V42.9502C74.8809 43.5055 74.654 44.0107 74.287 44.3777L74.2773 44.3873H74.2749C73.8983 44.7543 73.384 44.9831 72.8215 44.9831H2.05944C1.56208 44.9831 1.10336 44.8043 0.743618 44.5088C0.695331 44.4731 0.647044 44.4326 0.603586 44.3873C0.231777 44.0203 0 43.5103 0 42.9502V32.1232C0 31.6275 0.18349 31.1723 0.487698 30.8172C0.523913 30.7719 0.562542 30.729 0.606001 30.6861C0.97781 30.3191 1.49448 30.0903 2.06185 30.0903H2.05944ZM72.8215 42.9502L73.2947 43.4173L72.8215 42.9502ZM72.3434 42.4783H72.3386L72.8191 42.9502L72.341 42.4783H72.3434Z" fill="black"/>
<path d="M19.178 43.887C19.3229 44.6305 20.0496 45.1167 20.8029 44.9761C21.5562 44.8331 22.0487 44.1158 21.9062 43.3722C21.73 42.4713 21.5948 41.53 21.5079 40.5624C21.4234 39.6329 21.3775 38.6224 21.3775 37.5381C21.3775 36.4537 21.4234 35.448 21.5054 34.5233C21.5924 33.5605 21.7276 32.6191 21.9014 31.723C22.0463 30.9794 21.5513 30.2621 20.798 30.1191C20.0448 29.9761 19.3181 30.4647 19.1732 31.2082C18.9897 32.152 18.8448 33.1839 18.7434 34.2874C18.6445 35.3693 18.5938 36.4608 18.5938 37.5381C18.5938 38.6153 18.6469 39.7139 18.7459 40.7983C18.8473 41.9065 18.9921 42.9408 19.178 43.887Z" fill="black"/>
<path d="M78.5507 32.1447C78.5507 31.3868 77.9278 30.772 77.16 30.772C76.3923 30.772 75.7694 31.3868 75.7694 32.1447V42.9336C75.7694 43.6914 76.3923 44.3063 77.16 44.3063C77.9278 44.3063 78.5507 43.6914 78.5507 42.9336V32.1447Z" fill="black"/>
<path d="M82.1641 32.1452C82.1641 31.3873 81.5412 30.7725 80.7735 30.7725C80.0057 30.7725 79.3828 31.3873 79.3828 32.1452V42.934C79.3828 43.6919 80.0057 44.3068 80.7735 44.3068C81.5412 44.3068 82.1641 43.6919 82.1641 42.934V32.1452Z" fill="black"/>
<path d="M76.6591 5.739C75.9831 5.3839 75.1453 5.63652 74.7856 6.30144C74.4258 6.96874 74.6817 7.79572 75.3553 8.15082C77.6804 9.37579 78.5688 10.4792 78.6799 11.5255C78.7958 12.617 78.1246 13.892 77.3375 15.2147C76.4152 16.7638 75.435 18.4773 74.9352 20.3076C74.3896 22.3048 74.4137 24.3829 75.6306 26.442C76.0169 27.0974 76.8691 27.3167 77.5307 26.9354C78.1946 26.5541 78.4167 25.7128 78.0304 25.0598C77.2506 23.7419 77.2506 22.3644 77.6176 21.0178C78.0304 19.5045 78.902 17.984 79.7253 16.5993C80.7611 14.8596 81.6351 13.1317 81.4371 11.2466C81.2343 9.31859 79.9474 7.46921 76.6591 5.73661V5.739Z" fill="black"/>
<path d="M84.1942 0.161847C83.5182 -0.193253 82.6805 0.0593684 82.3207 0.724287C81.961 1.38921 82.2169 2.21857 82.8905 2.57367C85.2155 3.79864 86.104 4.90208 86.2151 5.94831C86.3309 7.03983 85.6598 8.31485 84.8727 9.63754C83.9504 11.1866 82.9702 12.9002 82.4704 14.7305C81.9248 16.7276 81.9489 18.8058 83.1657 20.8649C83.552 21.5203 84.4043 21.7395 85.0658 21.3582C85.7298 20.9769 85.9519 20.1356 85.5656 19.4826C84.7858 18.1647 84.7858 16.7872 85.1527 15.4407C85.5656 13.9273 86.4372 12.4068 87.2605 11.0222C88.2962 9.28244 89.1726 7.5546 88.9722 5.66947C88.7694 3.73906 87.4826 1.89207 84.1942 0.159464V0.161847Z" fill="black"/>
</g>
<defs>
<clipPath id="clip0_1_947">
<rect width="89" height="45" fill="white"/>
</clipPath>
</defs>
</svg>
