<svg width="76" height="43" viewBox="0 0 76 43" fill="none" xmlns="http://www.w3.org/2000/svg">
<g clip-path="url(#clip0_1_974)">
<path d="M75.3309 22.4032C75.2821 21.7607 75.1968 21.1182 75.1724 20.4636C75.148 19.7241 75.3065 18.9361 74.831 18.3178C74.063 17.2995 72.6732 17.445 71.5028 17.4692C71.4663 15.772 71.4297 14.0627 71.4297 12.3655C71.4297 11.1895 71.8198 9.18925 71.1005 8.14668C69.918 6.43735 66.4557 6.64344 64.3832 6.59495C64.3588 6.304 64.371 6.01305 64.3466 5.73422C63.9687 1.34572 61.567 0.654716 57.3366 0.63047C52.6674 0.594101 51.4483 2.24282 51.1191 6.80104C50.8631 10.4015 50.7778 14.0263 50.7168 17.6511C46.2548 18.0147 41.4881 17.5056 37.0017 17.5541C33.1493 17.6026 29.2847 17.6268 25.4323 17.7723C25.3713 14.1839 25.2738 10.5955 25.0177 7.01925C24.7008 2.4974 23.4938 0.812314 18.8002 0.848683C15.533 0.848683 12.1804 1.16388 11.7537 4.86137C11.6806 5.51601 11.6318 6.17065 11.5952 6.82528C9.5593 6.86165 6.3652 6.69193 5.18265 8.18305C3.67094 10.0863 4.36584 15.1416 4.35365 17.3722C4.35365 17.445 4.35365 17.5298 4.35365 17.6026C3.42712 17.5541 2.31772 17.4935 1.56186 17.8086C0.184254 18.3905 0.696285 20.7181 0.708476 21.8819C0.720668 23.0942 0.281784 25.0097 1.80569 25.337C2.56154 25.4946 3.37835 25.531 4.18297 25.5067C4.18297 28.3435 4.35365 31.1681 4.98759 33.6533C5.78002 36.7689 8.77906 36.7447 11.7049 36.8053C11.7293 37.2053 11.7293 37.6175 11.7659 38.0176C12.1073 41.9575 14.2773 42.2121 17.7884 42.2727C20.0194 42.3091 23.5304 43.0849 24.8349 40.8543C25.6029 39.5329 25.4444 37.2538 25.4932 35.7869C25.5907 32.635 25.5664 29.4709 25.542 26.3189C25.542 26.0644 25.542 25.8098 25.542 25.5673C33.893 25.4703 42.3171 25.8825 50.6437 25.4461C50.6071 28.2586 50.6071 31.0832 50.6437 33.9079C50.6802 35.7263 50.3755 38.0539 50.9606 39.7875C51.9725 42.7576 55.4836 42.103 58.1291 42.0666C61.1159 42.0181 63.5907 42.2121 64.2856 38.7934C64.4319 38.0903 64.5051 37.3508 64.5416 36.5992C67.3212 36.5507 70.3569 36.5386 71.1615 33.5563C71.7954 31.1924 71.8564 28.4889 71.7832 25.7855C72.722 25.834 73.807 25.7855 74.5628 25.4097C75.6235 24.8763 75.4162 23.4337 75.3431 22.4396L75.3309 22.4032ZM2.41525 23.7368C2.32991 22.9851 2.41525 22.1365 2.41525 21.4092C2.41525 20.9606 2.40305 20.4999 2.40305 20.0514C2.40305 19.9302 2.51278 19.3725 2.35429 19.3119C2.64688 19.2392 3.26863 19.2998 3.50026 19.2876C3.78066 19.2876 4.04887 19.2876 4.32927 19.2876C4.29269 20.7545 4.23174 22.2941 4.20735 23.8337C3.62218 23.858 2.97604 23.8337 2.41525 23.7246V23.7368ZM6.57245 32.2107C6.25548 30.9378 6.37739 29.4103 6.31643 28.0889C6.13356 24.5126 6.03603 20.9364 6.06042 17.348C6.07261 15.2507 5.84098 12.7291 6.34082 10.6804C6.92599 8.26791 9.2789 8.54674 11.5587 8.49825C11.4855 12.4382 11.8634 16.4751 11.7903 20.3666C11.6928 25.1551 11.4367 30.2104 11.6318 35.0838C8.96193 35.0353 7.3283 35.1929 6.58464 32.2107H6.57245ZM23.7499 36.9871C23.628 38.8177 23.823 40.1269 21.8724 40.5755C20.7996 40.818 19.1538 40.5876 18.0809 40.5755C16.0206 40.5513 14.0579 39.642 13.4727 37.4963C13.046 35.9445 13.5336 33.6169 13.5092 32.0046C13.4727 28.1253 13.3995 24.258 13.4849 20.3787C13.5336 17.8086 13.4605 15.2628 13.4117 12.6928C13.3751 10.6682 13.5458 8.64372 13.5336 6.61919C13.4971 3.28539 15.7524 2.52165 18.8246 2.52165C20.3119 2.52165 22.2382 3.29751 23.0915 4.61891C23.5792 5.39478 23.3476 7.27383 23.3963 8.21942C23.4938 10.2076 23.5426 12.1836 23.5914 14.1718C23.7011 17.9662 23.7864 21.7728 23.8352 25.5794C23.8718 29.3618 24.0181 33.2048 23.7621 36.9871H23.7499ZM25.5054 23.8459C25.5054 22.379 25.481 20.9 25.4566 19.4331C29.2969 19.2876 33.1615 19.2634 37.0017 19.2149C41.4759 19.1664 46.2426 19.6756 50.6924 19.3119C50.6802 20.7788 50.6559 22.2578 50.6437 23.7246C42.3049 24.1732 33.8686 23.7489 25.5054 23.8459ZM62.7495 12.4624C62.6886 15.0204 62.6276 17.5783 62.6764 20.1484C62.7495 23.7852 62.7008 27.41 62.652 31.0469C62.6032 35.0596 63.8346 40.2482 58.1169 40.333C57.166 40.3452 55.3982 40.6967 54.4961 40.2967C51.9359 39.1692 52.3992 37.2053 52.3626 35.1323C52.2895 31.556 52.2895 27.9677 52.3382 24.3914C52.387 20.6697 52.4845 16.9479 52.5943 13.2141C52.7162 9.18925 51.5092 2.25494 57.3366 2.30343C60.7989 2.32768 62.1278 3.45511 62.7008 7.07986C62.9812 8.82556 62.7983 10.7289 62.7495 12.4746V12.4624ZM69.7961 28.3677C69.7595 29.5436 69.8814 30.9741 69.5888 32.1258C68.8573 34.9626 67.0774 34.805 64.5416 34.8535C64.5051 33.0593 64.3466 31.2287 64.371 29.5558C64.4197 26.4159 64.4319 23.2761 64.371 20.1362C64.2978 16.1842 64.5782 12.2079 64.4685 8.25579C65.517 8.29216 66.6629 8.25579 67.626 8.52249C69.5157 9.04378 69.5522 9.22562 69.7473 11.3593C69.9911 14.0021 69.8083 16.7661 69.8448 19.4089C69.8814 22.3911 69.9058 25.3734 69.8083 28.3556L69.7961 28.3677ZM71.7101 23.9913C71.6369 22.4154 71.5516 20.8636 71.5394 19.4331C71.5394 19.3361 71.5394 19.2513 71.5394 19.1543C71.9295 19.1543 72.3196 19.1543 72.7098 19.1664C73.2827 19.1907 73.2949 19.0694 73.4656 19.5059C73.5997 19.8574 73.4656 20.4757 73.49 20.8515C73.5144 21.3364 73.5875 21.8092 73.6241 22.2941C73.6607 22.6821 73.6729 23.07 73.6729 23.4579C73.6729 23.4943 73.6363 23.7368 73.6485 23.8701C73.5875 23.8944 73.5266 23.9186 73.4778 23.9186C72.8926 23.9186 72.3075 23.9671 71.7223 23.9792L71.7101 23.9913Z" fill="black" stroke="black" stroke-miterlimit="10"/>
</g>
<defs>
<clipPath id="clip0_1_974">
<rect width="76" height="43" fill="white"/>
</clipPath>
</defs>
</svg>
