<svg width="85" height="57" viewBox="0 0 85 57" fill="none" xmlns="http://www.w3.org/2000/svg">
<path d="M82.2784 26.1443V26.8691C81.9599 27.3782 81.6328 27.8787 81.3315 28.3964C76.9155 35.8343 71.4579 42.3662 64.4422 47.483C56.0751 53.5921 46.7955 56.4309 36.4054 54.826C29.0454 53.6956 22.8389 50.0888 17.1575 45.4811C10.6842 40.2349 5.53651 33.8152 1 26.8605V26.1357C1.23242 25.8854 1.50788 25.6525 1.70587 25.3763C5.45903 19.9403 9.80616 15.0651 14.9969 10.9492C24.5347 3.39915 35.2003 -0.302546 47.4411 1.41456C57.6332 2.84691 66.0003 7.90331 73.0848 15.0996C76.4334 18.4993 79.2397 22.4512 82.287 26.1443H82.2784ZM58.5284 28.1807C58.537 18.8358 51.0049 11.2167 41.7253 11.1995C32.3251 11.1822 24.6897 18.8013 24.7155 28.172C24.7327 37.4651 32.3424 45.0583 41.6306 45.0583C50.936 45.0583 58.5198 37.4824 58.5284 28.172V28.1807Z" stroke="#272525" stroke-width="2" stroke-miterlimit="10" stroke-linecap="round"/>
<path d="M41.6834 18.0161C47.5025 18.0247 51.755 22.339 51.7377 28.2238C51.7205 34.0309 47.3906 38.2762 41.5026 38.2503C35.7954 38.2244 31.543 33.9014 31.543 28.1289C31.543 22.2786 35.8298 17.9988 41.6834 18.0075V18.0161Z" fill="#272525"/>
</svg>
