<svg width="66" height="77" viewBox="0 0 66 77" fill="none" xmlns="http://www.w3.org/2000/svg">
<g clip-path="url(#clip0_1_456)">
<path d="M65.2828 36.299L65.2762 36.2568C64.9286 34.441 64.2422 29.5262 63.0344 24.0809C61.8156 18.6179 60.1018 12.591 57.5124 8.24451C56.6258 6.76609 55.473 5.36536 54.1024 4.23767C52.7472 3.12553 51.1654 2.27311 49.412 1.96677C48.3164 1.69372 46.9062 1.48728 45.3266 1.30525C42.9198 1.02777 40.1478 0.823542 37.8114 0.659273C36.6432 0.577139 35.585 0.503884 34.7446 0.437288C33.913 0.372913 33.264 0.306317 33.055 0.26858C32.2124 0.119849 31.3038 0.00219727 30.3644 0.00219727C29.15 0.00219727 27.8608 0.197544 26.6442 0.816883C26.0282 1.12766 25.5398 1.59605 25.2098 2.09108C24.7126 2.84139 24.5234 3.60946 24.3738 4.26431C24.233 4.92139 24.1296 5.49411 23.991 5.86483C23.3508 7.65625 22.6292 9.60528 22.6226 11.8451C22.6226 12.0937 22.6314 12.3446 22.6512 12.6021C22.7194 13.4678 22.9372 14.3979 23.4498 15.2592C23.8502 15.9074 24.3914 16.5001 25.0382 17.0529C25.0382 17.084 25.0338 17.1128 25.0338 17.1439C25.036 17.4436 24.9392 17.8698 24.7808 18.4048C24.6268 18.9375 24.4156 19.5702 24.332 20.3316L24.3254 20.4248C24.3232 20.4759 24.321 20.5314 24.321 20.5891C24.3232 21.1796 24.4486 21.83 24.8226 22.4493C25.1878 23.0687 25.8544 23.6125 26.6684 23.8323C27.1018 23.95 27.5264 24.0032 27.9378 24.0032C29.8034 23.981 31.3434 23.011 32.2828 21.7701C32.4896 21.4904 32.6766 21.1973 32.8482 20.9021C33.1078 20.9643 33.3674 21.0198 33.627 21.0686C34.573 21.2462 35.4772 21.3039 36.3154 21.3039C37.7652 21.3017 39.0434 21.1307 39.9102 21.0686C39.9762 22.0209 40.0136 22.9954 40.0136 23.9744C40.0136 26.1032 39.8376 28.2454 39.4306 30.1966C38.8872 32.8027 37.9654 35.8129 37.1668 38.9562C36.9292 39.8952 36.7026 40.8453 36.5024 41.8042C35.0482 40.2748 33.1848 39.0694 31.1828 38.1437C27.9444 36.6608 24.288 35.8994 21.0496 35.895C13.2396 35.8839 6.09181 39.8397 2.33861 46.8722C1.34421 48.7368 0.629212 50.8768 0.294812 52.9656C0.0968118 54.1821 1.17389e-05 55.4097 1.17389e-05 56.6306C-0.00658826 63.1303 2.76981 69.5812 8.47001 73.3661C10.1662 74.4893 12.1814 75.4505 14.19 75.9833C16.555 76.6071 19.2016 77 21.7118 77C21.8988 77 22.0836 77 22.2662 76.9933C25.5948 76.9112 28.7254 76.1587 31.7592 75.4461C34.7952 74.7291 37.7344 74.0476 40.678 73.9899C40.8936 73.9854 41.107 73.9832 41.3204 73.9832C41.6592 73.9832 41.998 73.9899 42.3368 73.9987L42.999 74.0676C43.0474 74.072 43.0958 74.0742 43.1442 74.0742C43.2432 74.0742 43.34 74.0631 43.4346 74.0431C45.8304 74.1652 48.2878 74.4405 50.8266 74.5115C51.1808 74.5204 51.546 74.5271 51.9222 74.5271C54.1904 74.5182 56.8942 74.3073 59.1162 72.5558C60.2492 71.6524 60.9994 70.5003 61.5384 69.3415C62.0752 68.1849 62.4162 67.0062 62.7198 65.9429C64.7592 59.0902 66.0022 52.3241 66.0022 45.3693C66.0022 42.3858 65.7734 39.3691 65.285 36.3012L65.2828 36.299ZM30.0124 20.0563C29.6054 20.6268 28.7056 21.1663 27.9356 21.1441C27.7618 21.1441 27.5902 21.1219 27.4164 21.0753C27.2712 21.0242 27.2822 21.0109 27.2338 20.9509C27.1942 20.8932 27.1502 20.7467 27.1502 20.5869C27.1942 20.2228 27.3306 19.7611 27.4934 19.2128C27.5308 19.0863 27.5682 18.9531 27.6056 18.8154C27.6122 18.8199 27.6166 18.8221 27.6232 18.8265C28.3888 19.255 29.2094 19.6479 30.0542 19.992C30.0388 20.0119 30.0256 20.0364 30.0102 20.0563H30.0124ZM60.005 65.1193L60.0006 65.1371C59.7036 66.1871 59.3934 67.2282 58.9732 68.1272C58.553 69.0285 58.0426 69.7677 57.3584 70.3138C56.034 71.3949 54.01 71.679 51.9222 71.6701C51.5812 71.6701 51.2402 71.6635 50.9014 71.6546C48.191 71.5835 45.408 71.2328 42.5194 71.1462L33.9724 70.2716C33.1936 70.1917 32.4984 70.7644 32.4192 71.5502C32.3906 71.8277 32.4456 72.0941 32.56 72.3272C32.0738 72.4382 31.592 72.5514 31.1124 72.6646C28.0742 73.3838 25.1372 74.0698 22.2002 74.1386C22.0396 74.143 21.8746 74.143 21.7096 74.143C19.4942 74.143 17.0456 73.7856 14.9072 73.2196C13.2704 72.7889 11.4708 71.9387 10.0276 70.9775C5.24261 67.8031 2.83801 62.3467 2.83361 56.6328C2.83361 55.5651 2.91941 54.4885 3.08881 53.4229C3.36601 51.6715 3.99741 49.7868 4.82901 48.2329C8.08501 42.1638 14.1636 38.7697 21.0474 38.7586C23.837 38.7542 27.181 39.449 30.0058 40.752C32.6766 41.9707 34.8392 43.72 35.8578 45.7334C35.7522 46.7034 35.6906 47.6735 35.6906 48.6392C35.6906 50.7502 35.981 52.8502 36.7466 54.8459C37.5078 56.8393 38.7508 58.7173 40.5658 60.3378C40.8364 60.5797 41.1708 60.6974 41.5052 60.6974C41.8968 60.6974 42.2862 60.5353 42.5656 60.2157C43.0848 59.6252 43.032 58.7217 42.4468 58.1978C42.1014 57.8871 41.7846 57.5696 41.4942 57.2455C40.535 56.1778 39.8618 55.0345 39.391 53.8136C38.7816 52.2242 38.5264 50.4861 38.5264 48.6369C38.5264 47.7845 38.5814 46.9077 38.6804 46.0197C38.7464 45.8288 38.7728 45.6224 38.753 45.4159C38.9994 43.5357 39.424 41.5956 39.9124 39.6687C40.37 37.8618 40.8804 36.0681 41.3424 34.3256C41.6636 33.118 41.9628 31.9348 42.2026 30.7893C42.6624 28.5895 42.8472 26.263 42.8472 23.9766C42.8472 22.9421 42.8098 21.9166 42.7394 20.9176C44.3872 20.6624 45.6962 20.063 46.6642 19.2195C47.2098 19.3704 47.74 19.4437 48.246 19.4437H48.2614C49.2976 19.4437 50.2194 19.1196 50.9344 18.6556C52.019 17.9497 52.6658 16.9885 53.075 16.2249C53.482 15.4568 53.647 14.8619 53.6668 14.7931C53.878 14.0317 53.4358 13.2436 52.6834 13.0327C51.9332 12.8218 51.1522 13.2614 50.941 14.0183V14.025C50.9168 14.1049 50.677 14.8308 50.2216 15.4501C49.984 15.7765 49.6958 16.0695 49.379 16.2671C49.0996 16.438 48.8092 16.549 48.4286 16.5778C48.6882 15.8164 48.7916 15.0484 48.7894 14.3469C48.7894 13.5899 48.675 12.8929 48.4814 12.2824C48.2702 11.672 48.0458 11.1459 47.4936 10.653C46.9084 10.1758 46.2748 10.0581 45.705 10.0537C44.9086 10.0626 44.1386 10.2934 43.4456 10.7774C43.1024 11.0215 42.7768 11.3412 42.5282 11.7563C42.2796 12.167 42.119 12.6842 42.1212 13.2259C42.1212 13.7564 42.2686 14.2869 42.526 14.7709C42.8934 15.4679 43.7514 15.7321 44.4422 15.3614C45.133 14.9906 45.3948 14.1249 45.0274 13.4279C44.9636 13.3058 44.957 13.2503 44.9548 13.2325C44.968 13.2081 45.0516 13.1149 45.2034 13.0416C45.353 12.9639 45.5598 12.9151 45.6874 12.9151C45.727 13.0017 45.7798 13.1304 45.8194 13.2836C45.8986 13.5722 45.9558 13.9495 45.9558 14.3491C45.9536 15.2348 45.694 16.1649 45.0208 16.8642C44.462 17.4391 43.5446 17.9719 41.9232 18.1428C40.3832 16.3758 40.0598 14.7398 40.0488 13.4789C40.0488 13.2014 40.0664 12.9439 40.095 12.7131C40.1896 11.9295 39.6352 11.2169 38.8586 11.1214C38.082 11.026 37.3758 11.5854 37.2812 12.369C37.2416 12.7064 37.2152 13.0771 37.2152 13.4789C37.2064 14.8441 37.5298 16.5712 38.555 18.3249C37.9082 18.3848 37.2262 18.4403 36.509 18.4492C35.5388 16.4491 35.2484 14.6577 35.2462 13.1792C35.2462 12.6154 35.2902 12.096 35.3562 11.6342C35.4684 10.8528 34.9316 10.1269 34.1594 10.0137C33.385 9.90052 32.6656 10.4422 32.5534 11.2213C32.4676 11.8096 32.4148 12.4667 32.4148 13.1792C32.4148 14.611 32.6392 16.2782 33.2772 18.0651C32.4808 17.8609 31.6624 17.579 30.8682 17.2438C30.8682 17.0595 30.8352 16.8731 30.7626 16.6933C30.2346 15.3969 30.0454 14.1205 30.0454 12.9328C30.0454 11.4788 30.338 10.1647 30.646 9.19904C30.8858 8.44651 30.4766 7.64293 29.733 7.40096C28.9872 7.159 28.1908 7.57189 27.951 8.3222C27.577 9.49872 27.214 11.0948 27.214 12.9328C27.214 13.6898 27.2778 14.489 27.4274 15.3125C26.653 14.7309 26.092 14.1671 25.883 13.7875C25.6652 13.4279 25.5244 12.924 25.4848 12.3845C25.4716 12.2069 25.465 12.0294 25.465 11.8518C25.4584 10.269 26.0106 8.63964 26.6618 6.84822C26.9984 5.88259 27.0864 4.99908 27.2734 4.38418C27.3614 4.07563 27.4626 3.8492 27.5616 3.70047C27.665 3.55174 27.7508 3.46739 27.9268 3.37415C28.6286 3.01676 29.4536 2.86581 30.371 2.86581C31.0772 2.86581 31.8274 2.95682 32.571 3.08779C33.165 3.1899 34.1286 3.26316 35.4552 3.36083C37.422 3.50512 40.0686 3.67605 42.581 3.90248C45.0824 4.12668 47.4826 4.42192 48.785 4.75934L48.9016 4.78376C50.0632 4.97467 51.2424 5.57403 52.3226 6.46197C53.4006 7.34547 54.3664 8.50867 55.0946 9.72737C57.387 13.5411 59.1052 19.3904 60.2778 24.7114C61.457 30.0279 62.1214 34.7873 62.4976 36.7763C62.9618 39.6865 63.1774 42.5434 63.1774 45.3737C63.1774 51.9845 61.9982 58.4598 60.016 65.126L60.005 65.1193ZM31.9638 55.3387C28.1402 58.6041 24.1252 59.7872 20.317 59.7939C15.2636 59.805 10.5622 57.614 7.77701 55.2543C7.17641 54.7482 6.28321 54.8303 5.78161 55.4363C5.28001 56.0424 5.35921 56.9436 5.95981 57.4497C9.25321 60.2157 14.4562 62.642 20.317 62.6553C20.328 62.6553 20.339 62.6553 20.35 62.6553C24.739 62.6553 29.4866 61.2213 33.7964 57.5208C34.3926 57.0102 34.4652 56.1067 33.9592 55.5052C33.4532 54.9036 32.5578 54.8303 31.9616 55.3409L31.9638 55.3387ZM19.866 33.2955C20.6492 33.2955 21.2828 32.6562 21.2828 31.866V21.7567C21.2828 20.9665 20.6492 20.3272 19.866 20.3272C19.0828 20.3272 18.4492 20.9665 18.4492 21.7567V31.866C18.4492 32.6562 19.0828 33.2955 19.866 33.2955ZM12.3486 33.0647C12.606 33.5397 13.0922 33.8083 13.5916 33.8083C13.8226 33.8083 14.0558 33.7506 14.2714 33.633C14.9578 33.2534 15.2086 32.3854 14.8324 31.6928L10.7844 24.2385C10.4082 23.5459 9.54801 23.2929 8.86161 23.6725C8.17521 24.0521 7.92441 24.92 8.30061 25.6126L12.3486 33.0669V33.0647ZM3.11521 33.1024L7.46681 36.4721C7.72421 36.6719 8.02781 36.7674 8.32921 36.7674C8.75381 36.7674 9.17401 36.5743 9.45341 36.208C9.92861 35.582 9.81201 34.6829 9.19161 34.2035L4.84001 30.8337C4.21961 30.352 3.33081 30.4719 2.85341 31.0979C2.37601 31.7239 2.49481 32.6229 3.11521 33.1024ZM26.906 33.633C27.4384 33.633 27.9488 33.3288 28.1908 32.8094L30.3842 28.0855C30.7164 27.3708 30.4106 26.5183 29.7022 26.1854C28.9938 25.8502 28.149 26.1587 27.819 26.8735L25.6256 31.5973C25.2934 32.3121 25.5992 33.1646 26.3076 33.4975C26.5012 33.5886 26.7058 33.633 26.9082 33.633H26.906ZM34.0934 35.8706L36.3638 33.724C36.9336 33.1845 36.9644 32.2788 36.4298 31.7039C35.8952 31.1267 34.9976 31.0979 34.4278 31.6395L32.1574 33.7861C31.5854 34.3255 31.5568 35.2313 32.0936 35.8062C32.373 36.1059 32.7492 36.259 33.1276 36.259C33.4752 36.259 33.8228 36.1303 34.0956 35.8728L34.0934 35.8706ZM56.8458 63.3612C56.0868 63.1703 55.3168 63.6342 55.1276 64.4001C54.7492 65.8452 54.076 66.4268 53.339 66.8264C52.602 67.2104 51.7572 67.2792 51.3964 67.2748C51.3282 67.2748 51.2776 67.2748 51.249 67.2726C51.238 67.2726 51.2314 67.2726 51.2248 67.2726H51.2204C50.4438 67.206 49.7596 67.7832 49.6892 68.5668C49.6188 69.3526 50.193 70.0496 50.9718 70.1207C51.0092 70.1229 51.1588 70.1362 51.3942 70.1362C52.0234 70.1318 53.2774 70.0563 54.6172 69.3792C55.957 68.7177 57.343 67.317 57.8732 65.0971C58.0624 64.3313 57.6004 63.5543 56.8436 63.3634L56.8458 63.3612Z" fill="black"/>
</g>
<defs>
<clipPath id="clip0_1_456">
<rect width="66" height="77" fill="white"/>
</clipPath>
</defs>
</svg>
