<svg width="76" height="69" viewBox="0 0 76 69" fill="none" xmlns="http://www.w3.org/2000/svg">
<g clip-path="url(#clip0_1_128)">
<path d="M15.8809 7.43342C15.3922 7.70014 14.4678 7.54638 13.4063 7.02237C13.0826 6.86235 12.7651 6.68663 12.4445 6.51405C11.3737 5.92729 10.1598 5.26521 8.71237 5.04243C6.89143 4.76003 5.00201 5.27149 3.40208 6.48581C1.59982 7.84761 0.357844 9.96876 0.0745875 12.1558C-0.37053 15.6231 1.18271 19.357 4.22695 22.1371C6.83851 24.5218 10.1286 25.9401 12.7745 27.0823C14.1814 27.6879 16.0677 28.6292 16.1798 29.7933C16.3385 31.4375 16.2389 31.8894 14.9098 32.5514C13.5495 33.2292 12.1426 31.6478 11.8406 31.1896C11.2305 30.2577 9.98547 30.0004 9.06099 30.6186C8.13651 31.2336 7.88438 32.4887 8.49448 33.4206C10.0259 35.7551 12.2079 36.7467 14.197 36.7467C15.0903 36.7467 15.9432 36.5458 16.684 36.1787C17.4591 35.7928 18.0661 35.3598 18.5454 34.8985C20.3197 38.6576 23.1522 41.8832 26.7723 44.1173V48.6106C26.7723 49.7277 27.6719 50.6345 28.78 50.6345H31.1986V57.1768H22.9312C22.3398 57.1768 21.7795 57.4404 21.3998 57.8922L18.3773 61.4975L11.769 65.2064C10.9691 65.6551 10.5738 66.5902 10.8041 67.4813C11.0344 68.3724 11.8313 68.9969 12.7464 68.9969H63.2595C64.1747 68.9969 64.9715 68.3724 65.2019 67.4813C65.4322 66.5902 65.0338 65.6551 64.2369 65.2064L57.6286 61.4975L54.6062 57.8922C54.2264 57.4372 53.663 57.1768 53.0747 57.1768H44.8074V50.6345H47.226C48.3341 50.6345 49.2337 49.7277 49.2337 48.6106V44.1173C52.8537 41.8832 55.6863 38.6576 57.4606 34.8985C57.9399 35.3598 58.5469 35.7959 59.322 36.1787C60.0628 36.5458 60.9157 36.7467 61.809 36.7467C63.798 36.7467 65.9801 35.7551 67.5115 33.4206C68.1216 32.4887 67.8695 31.2336 66.945 30.6186C66.0205 30.0004 64.7754 30.2577 64.1653 31.1896C63.8634 31.6509 62.4565 33.2292 61.0962 32.5514C59.7671 31.8894 59.6675 31.4375 59.8262 29.7933C59.9383 28.6292 61.8215 27.6879 63.2315 27.0823C65.8773 25.9432 69.1675 24.525 71.779 22.1371C74.8264 19.3539 76.3765 15.6231 75.9314 12.1558C75.6513 9.96562 74.4062 7.84447 72.6039 6.47954C71.004 5.26521 69.1177 4.75689 67.2967 5.03615C65.8493 5.25894 64.6354 5.92415 63.5646 6.51091C63.244 6.68663 62.9265 6.86235 62.6028 7.02237C61.5413 7.54638 60.6169 7.70014 60.1282 7.43342C59.9663 7.34557 59.8262 7.11965 59.7671 6.86235C59.7079 6.60505 59.7422 6.34147 59.8511 6.19086C59.9601 6.04025 60.1966 5.93042 60.4612 5.90532C60.7227 5.88022 60.9779 5.94925 61.1118 6.07476C61.9149 6.84666 63.1848 6.81214 63.9475 6.00259C64.7101 5.19304 64.6789 3.91282 63.8759 3.14407C62.8985 2.20587 61.5227 1.74461 60.097 1.8764C59.9134 1.89209 59.736 1.92033 59.5585 1.95484C59.5212 0.869168 58.6434 0 57.5602 0H18.4489C17.3626 0 16.4848 0.869168 16.4506 1.95484C16.2731 1.92033 16.0926 1.89209 15.9121 1.8764C14.4864 1.74461 13.1106 2.209 12.1332 3.14407C11.3302 3.91282 11.299 5.19304 12.0616 6.00259C12.8274 6.81214 14.0942 6.84352 14.8973 6.07476C15.0312 5.94611 15.2833 5.87708 15.5479 5.90532C15.8094 5.93042 16.049 6.04025 16.158 6.19086C16.2669 6.34147 16.298 6.60505 16.242 6.86235C16.1829 7.11965 16.0428 7.34557 15.8809 7.43342ZM54.8023 64.3937C54.9579 64.5789 55.1478 64.7357 55.3595 64.855L55.5307 64.9523H20.4691L20.6403 64.855C20.8519 64.7357 21.0418 64.5789 21.1975 64.3937L23.8557 61.2246H52.1378L54.7961 64.3937H54.8023ZM40.792 57.1768H35.2109V50.6345H40.792V57.1768ZM45.2151 46.5899H30.7846V44.7574H45.2151V46.5899ZM64.3646 10.6528C64.7381 10.4677 65.1054 10.2668 65.4727 10.066C66.3318 9.59536 67.1442 9.15293 67.9006 9.0337C68.906 8.87681 69.7651 9.39141 70.1884 9.71146C71.1285 10.4237 71.8039 11.5596 71.9471 12.6735C72.274 15.212 70.6803 17.6783 69.0803 19.1374C67.1224 20.9259 64.6634 22.0618 61.6503 23.3608C61.1211 23.5899 60.3585 23.9194 59.5585 24.3838V11.4906C60.9841 11.7981 62.6214 11.5157 64.3646 10.6528ZM20.4566 4.04461H55.5431V25.5887C55.5431 31.767 52.3152 37.5123 47.0859 40.7128H28.9139C23.6845 37.5123 20.4566 31.767 20.4566 25.5887V4.04461ZM16.4443 11.4906V24.3869C15.6444 23.9225 14.8849 23.593 14.3526 23.364C11.3395 22.0649 8.88045 20.9291 6.92256 19.1405C5.32262 17.6783 3.72891 15.212 4.05575 12.6767C4.19893 11.5628 4.87128 10.4269 5.81132 9.7146C6.23465 9.39454 7.09375 8.87995 8.09916 9.03683C8.85555 9.15293 9.66797 9.5985 10.5271 10.066C10.8944 10.2668 11.2617 10.4677 11.6352 10.6497C13.3814 11.5126 15.0156 11.795 16.4443 11.4874V11.4906Z" fill="#231F20"/>
</g>
<defs>
<clipPath id="clip0_1_128">
<rect width="76" height="69" fill="white"/>
</clipPath>
</defs>
</svg>
