<svg width="88" height="32" viewBox="0 0 88 32" fill="none" xmlns="http://www.w3.org/2000/svg">
<path d="M70.1064 16.0635C69.3897 16.5626 68.7308 17.0198 68.0824 17.4719C69.7074 20.9079 67.3605 25.201 62.0236 24.2029C61.9973 25.7054 61.5747 27.0354 60.2438 27.9029C58.9758 28.7286 57.5687 28.7181 56.138 28.4673C56.075 28.6319 56.0225 28.7495 55.9831 28.8697C55.1326 31.4356 53.4131 32.439 50.7801 31.8223C49.6119 31.548 48.4569 31.1743 47.6509 30.1866C47.4068 29.8887 47.1417 29.9149 46.782 29.988C45.0993 30.3355 43.4192 30.7327 41.7155 30.9104C40.1457 31.0724 38.7255 30.5132 37.4864 29.4889C31.5221 24.5635 25.542 19.6563 19.5672 14.7413C19.2495 14.48 18.9319 14.2187 18.567 13.9156C18.0262 14.8798 17.3594 15.6506 16.3199 16.0269C15.5586 16.3039 14.792 16.3797 14.0071 16.1706C10.3214 15.1855 6.6331 14.2187 2.9579 13.2049C0.674031 12.5752 -0.441654 10.6494 0.162129 8.37873C1.71884 2.52828 3.30705 -3.31433 4.88213 -9.15693C5.48592 -11.3989 6.1107 -13.6356 6.69348 -15.8801C7.30776 -18.2527 9.30287 -19.4599 11.6655 -18.838C15.0808 -17.9391 18.4804 -16.9854 21.9062 -16.1362C24.19 -15.5692 25.4947 -14.2522 25.4606 -11.6366C27.3533 -11.6366 29.2461 -11.5635 31.1335 -11.6523C34.688 -11.8196 38.2372 -12.0704 41.7864 -12.303C44.5612 -12.4859 47.2834 -12.1619 49.9584 -11.4694C52.9327 -10.6986 55.8886 -9.85721 58.8524 -9.04719C59.0178 -9.00277 59.1858 -8.96619 59.4011 -8.91131C59.4405 -9.07854 59.493 -9.21442 59.5061 -9.35291C59.6426 -10.8005 60.3855 -11.864 61.6928 -12.4493C65.2158 -14.0223 68.7518 -15.5666 72.3036 -17.0716C74.3906 -17.9574 76.5065 -17.0716 77.4122 -15.0204C80.796 -7.35137 84.1772 0.32032 87.5557 7.99201C88.59 10.3411 87.792 12.4262 85.4294 13.4662C82.0403 14.9608 78.6407 16.4371 75.2386 17.903C73.4115 18.6921 71.5161 18.1277 70.3925 16.4946C70.3085 16.3718 70.2272 16.2464 70.1064 16.0609V16.0635ZM44.9155 27.8846C43.8629 26.761 42.8154 25.627 41.7523 24.5112C41.3559 24.0958 41.1065 23.6019 41.39 23.1028C41.5895 22.7501 42.02 22.3529 42.3823 22.3163C42.7813 22.2745 43.3168 22.5201 43.6319 22.8128C45.6506 24.7046 47.6221 26.646 49.6172 28.5613C50.9796 29.8704 53.1217 29.3896 53.6074 27.652C53.6704 27.4273 53.5654 27.051 53.3974 26.889C52.3499 25.8752 51.2605 24.9006 50.1842 23.9129C48.323 22.204 46.4644 20.4925 44.6005 18.7862C44.1726 18.3943 44.023 17.9239 44.1884 17.3726C44.3433 16.8604 44.7292 16.5181 45.2411 16.5469C45.6375 16.5704 46.1021 16.7455 46.3961 17.0094C49.3862 19.7112 52.3526 22.4391 55.3137 25.1749C55.8834 25.7001 56.516 26.0424 57.2852 26.0868C58.0675 26.1313 58.8419 26.0999 59.2672 25.2821C59.6373 24.5687 59.4247 23.1316 58.8813 22.5907C58.0806 21.7911 57.2747 20.9942 56.4714 20.1972C54.1534 17.8952 51.8354 15.5931 49.5227 13.2859C48.9084 12.6718 48.8086 12.178 49.1158 11.6057C49.4807 10.9211 50.4887 10.6285 51.3209 11.4673C54.3083 14.4852 57.3613 17.4405 60.333 20.4742C61.3621 21.5246 62.5854 21.8303 63.9478 21.7937C65.1318 21.765 65.9666 21.0595 65.9981 19.9307C66.0138 19.3114 65.7749 18.5693 65.3943 18.0781C64.024 16.3065 62.5959 14.5767 61.0995 12.9122C58.8603 10.4195 56.5633 7.97372 54.2506 5.54888C53.1559 4.40178 52.0428 3.24946 50.8011 2.27221C47.9633 0.0355061 45.3434 -0.0664008 42.2878 1.85675C40.9595 2.69029 39.7204 3.66231 38.4052 4.51414C37.1766 5.3111 35.8352 5.84937 34.3231 5.59591C31.2701 5.08116 29.632 2.72425 29.9549 -0.552414C30.199 -3.01383 31.102 -5.2636 32.1967 -7.44805C32.4619 -7.97587 32.7323 -8.50108 33.0735 -9.17261C30.7345 -9.17261 28.553 -9.18829 26.3715 -9.16738C25.2847 -9.15693 24.5996 -8.5664 24.3266 -7.52382C22.7331 -1.43821 21.1396 4.6474 19.5278 10.7278C19.4175 11.1459 19.4805 11.3706 19.8244 11.6554C23.5233 14.7047 27.1906 17.788 30.8894 20.84C33.5277 23.0166 36.1817 25.1749 38.8593 27.3071C39.3896 27.7304 40.0197 28.1563 40.6628 28.287C42.1408 28.5875 43.603 28.2713 44.9208 27.882L44.9155 27.8846ZM73.6871 15.716C73.7974 15.6872 74.0179 15.6611 74.2121 15.5749C77.6301 14.0933 81.048 12.6117 84.4581 11.1119C85.4766 10.6651 85.6814 10.0745 85.243 9.07378C81.8854 1.4439 78.5279 -6.18598 75.1729 -13.8159C74.7135 -14.8584 74.0809 -15.1014 73.0229 -14.6416C69.7678 -13.2201 66.5126 -11.8013 63.2548 -10.385C61.9553 -9.82063 61.7637 -9.28758 62.336 -7.99155C64.2077 -3.76376 66.0663 0.469258 67.9275 4.70227C69.4134 8.07824 70.8992 11.4568 72.3877 14.8328C72.6134 15.3449 72.9836 15.682 73.6845 15.7107L73.6871 15.716ZM14.7343 13.7353C15.5875 13.7588 16.0469 13.3878 16.2464 12.6431C17.5064 7.9711 18.7613 3.29911 20.0187 -1.37027C20.9322 -4.76453 21.8563 -8.15355 22.7698 -11.5478C23.0822 -12.7106 22.7593 -13.2488 21.5912 -13.5572C20.7485 -13.7793 19.9084 -14.0118 19.0658 -14.2392C16.3724 -14.9577 13.679 -15.6841 10.9803 -16.3896C10.0405 -16.6353 9.46826 -16.2903 9.18999 -15.3706C9.14011 -15.2034 9.10074 -15.0361 9.05611 -14.8663C6.91662 -6.92807 4.77975 1.01276 2.63764 8.95097C2.3725 9.93083 2.71377 10.5292 3.71657 10.7983C6.32596 11.5012 8.93535 12.2015 11.5447 12.8966C12.6604 13.1944 13.7761 13.4819 14.729 13.7327L14.7343 13.7353ZM66.615 15.3841C67.1925 14.9843 67.6939 14.5924 68.2399 14.2788C68.7597 13.9783 68.891 13.7014 68.6284 13.0951C65.9534 6.91808 63.3204 0.722718 60.6506 -5.45696C60.5378 -5.72087 60.1939 -5.96911 59.9077 -6.06056C57.7446 -6.73471 55.5789 -7.40624 53.3921 -7.99939C50.5097 -8.77805 47.6299 -9.7135 44.6242 -9.73179C41.9045 -9.74746 39.1822 -9.44697 36.4626 -9.25622C36.2578 -9.24055 35.9953 -9.01844 35.8877 -8.82247C35.0371 -7.25991 34.1551 -5.70781 33.4043 -4.09822C32.7428 -2.67676 32.2912 -1.16908 32.3962 0.437903C32.5275 2.46818 34.1787 3.54211 36.0793 2.80526C36.6017 2.60144 37.111 2.32708 37.5756 2.01353C38.8593 1.15124 40.0958 0.215801 41.3926 -0.622963C43.7762 -2.16462 46.3069 -2.83354 49.0948 -1.75438C50.9612 -1.03059 52.5468 0.121734 53.9382 1.51445C55.3059 2.88365 56.5685 4.35736 57.8864 5.77621C59.8421 7.88226 61.8188 9.97003 63.7614 12.0891C64.7301 13.1448 65.641 14.2527 66.615 15.3789V15.3841Z" fill="black"/>
<path d="M75.102 8.21936C75.102 6.24656 76.6298 4.72059 78.6197 4.71013C80.6043 4.69968 82.2083 6.29621 82.1899 8.26117C82.1715 10.1843 80.5518 11.7704 78.6092 11.7625C76.6587 11.7547 75.102 10.1817 75.0994 8.21936H75.102ZM78.5987 9.20445C79.1736 9.22013 79.6015 8.81773 79.6172 8.2481C79.633 7.69415 79.2077 7.23688 78.6591 7.2212C78.1262 7.20552 77.6405 7.65757 77.6248 8.18539C77.609 8.71321 78.0632 9.18877 78.5987 9.20183V9.20445Z" fill="black"/>
<path d="M9.09554 3.55256C11.0775 3.56562 12.629 5.14909 12.6106 7.14278C12.5922 9.07377 11.0014 10.6233 9.03779 10.6128C7.07418 10.605 5.4886 8.99016 5.51222 7.01997C5.53322 5.09944 7.14769 3.53688 9.09554 3.54995V3.55256ZM10.0826 7.09314C10.0878 6.58099 9.59432 6.09498 9.06667 6.09498C8.53376 6.09498 8.11374 6.50522 8.09274 7.03827C8.07174 7.61051 8.47863 8.04687 9.04566 8.06516C9.57069 8.08084 10.0747 7.60789 10.0826 7.09314V7.09314Z" fill="black"/>
</svg>
