<svg width="61" height="91" viewBox="0 0 61 91" fill="none" xmlns="http://www.w3.org/2000/svg">
<g clip-path="url(#clip0_1_112)">
<path d="M17.1335 63.6101C17.2886 62.8424 16.7961 62.0944 16.0302 61.9388C15.2643 61.7833 14.518 62.277 14.3629 63.0448L8.97191 89.3015C8.81676 90.0693 9.30931 90.8173 10.0752 90.9728C10.8411 91.1284 11.5874 90.6346 11.7425 89.8669L17.1335 63.6101Z" fill="black"/>
<path d="M47.0042 63.0424C46.8491 62.2746 46.1004 61.7809 45.3369 61.9364C44.571 62.0919 44.0785 62.8424 44.2336 63.6077L49.6246 89.8644C49.7798 90.6322 50.5284 91.1259 51.2919 90.9704C52.0578 90.8149 52.5504 90.0644 52.3952 89.2991L47.0042 63.0424Z" fill="black"/>
<path d="M9.681 16.7968H51.3188C52.102 16.7968 52.7374 17.4337 52.7374 18.2188V33.5443C52.7374 34.3293 52.102 34.9662 51.3188 34.9662H9.681C8.89784 34.9662 8.26245 34.3293 8.26245 33.5443V18.2188C8.26245 17.4337 8.89784 16.7968 9.681 16.7968ZM49.9003 19.6407H11.0995V32.1223H49.9003V19.6407Z" fill="black"/>
<path d="M13.2792 40.8046C14.6929 40.8046 15.9735 41.3798 16.8995 42.308C17.8255 43.2362 18.3993 44.5199 18.3993 45.9369C18.3993 47.3539 17.8255 48.6376 16.8995 49.5659C15.9735 50.4941 14.6929 51.0693 13.2792 51.0693C11.8656 51.0693 10.585 50.4941 9.659 49.5659C8.733 48.6376 8.15918 47.3539 8.15918 45.9369C8.15918 44.5199 8.733 43.2362 9.659 42.308C10.585 41.3798 11.8656 40.8046 13.2792 40.8046ZM14.8924 44.3175C14.4786 43.9027 13.9097 43.6485 13.2792 43.6485C12.6488 43.6485 12.0774 43.9052 11.6661 44.3175C11.2524 44.7322 10.9987 45.3025 10.9987 45.9345C10.9987 46.5664 11.2549 47.1392 11.6661 47.5514C12.0799 47.9662 12.6488 48.2204 13.2792 48.2204C13.9097 48.2204 14.4811 47.9637 14.8924 47.5514C15.3061 47.1367 15.5598 46.5664 15.5598 45.9345C15.5598 45.3025 15.3036 44.7297 14.8924 44.3175Z" fill="black"/>
<path d="M47.7209 40.8046C49.1345 40.8046 50.4152 41.3798 51.3412 42.308C52.2671 43.2362 52.841 44.5199 52.841 45.9369C52.841 47.3539 52.2671 48.6376 51.3412 49.5659C50.4152 50.4941 49.1345 51.0693 47.7209 51.0693C46.3073 51.0693 45.0266 50.4941 44.1007 49.5659C43.1747 48.6376 42.6008 47.3539 42.6008 45.9369C42.6008 44.5199 43.1747 43.2362 44.1007 42.308C45.0266 41.3798 46.3073 40.8046 47.7209 40.8046ZM49.334 44.3175C48.9203 43.9027 48.3514 43.6485 47.7209 43.6485C47.0904 43.6485 46.5191 43.9052 46.1078 44.3175C45.6941 44.7322 45.4404 45.3025 45.4404 45.9345C45.4404 46.5664 45.6965 47.1392 46.1078 47.5514C46.5215 47.9662 47.0904 48.2204 47.7209 48.2204C48.3514 48.2204 48.9203 47.9637 49.334 47.5514C49.7478 47.1367 50.0014 46.5664 50.0014 45.9345C50.0014 45.3025 49.7453 44.7297 49.334 44.3175Z" fill="black"/>
<path d="M24.7704 40.6762C24.7704 39.8912 24.1351 39.2543 23.3519 39.2543C22.5687 39.2543 21.9333 39.8912 21.9333 40.6762V55.6758C21.9333 56.4609 22.5687 57.0978 23.3519 57.0978C24.1351 57.0978 24.7704 56.4609 24.7704 55.6758V40.6762Z" fill="black"/>
<path d="M30.9494 40.6762C30.9494 39.8912 30.314 39.2543 29.5309 39.2543C28.7477 39.2543 28.1123 39.8912 28.1123 40.6762V55.6758C28.1123 56.4609 28.7477 57.0978 29.5309 57.0978C30.314 57.0978 30.9494 56.4609 30.9494 55.6758V40.6762Z" fill="black"/>
<path d="M37.131 40.6762C37.131 39.8912 36.4956 39.2543 35.7125 39.2543C34.9293 39.2543 34.2939 39.8912 34.2939 40.6762V55.6758C34.2939 56.4609 34.9293 57.0978 35.7125 57.0978C36.4956 57.0978 37.131 56.4609 37.131 55.6758V40.6762Z" fill="black"/>
<path d="M8.49158 5.95441H52.5084C54.8456 5.95441 56.9685 6.91225 58.5077 8.4527C60.0469 9.99561 61 12.1236 61 14.4664V56.0461C61 58.3889 60.0445 60.5169 58.5077 62.0598C56.9685 63.6027 54.8456 64.5581 52.5084 64.5581H8.49158C6.15443 64.5581 4.03153 63.6002 2.49231 62.0598C0.953086 60.5169 0 58.3889 0 56.0461V14.4664C0 12.1236 0.955549 9.99561 2.49231 8.4527C4.03153 6.90978 6.15443 5.95441 8.49158 5.95441ZM52.5084 8.79831H8.49158C6.93758 8.79831 5.52396 9.43523 4.49945 10.4647C3.47495 11.4941 2.83709 12.9086 2.83709 14.4664V56.0461C2.83709 57.6039 3.47249 59.0209 4.49945 60.0478C5.52642 61.0748 6.93758 61.7142 8.49158 61.7142H52.5084C54.0624 61.7142 55.476 61.0773 56.5005 60.0478C57.5251 59.0209 58.1629 57.6039 58.1629 56.0461V14.4664C58.1629 12.9086 57.5275 11.4916 56.5005 10.4647C55.476 9.4377 54.0624 8.79831 52.5084 8.79831Z" fill="black"/>
<path d="M17.754 0H43.2435C44.0267 0 44.6621 0.636916 44.6621 1.42195V7.37638C44.6621 8.16141 44.0267 8.79833 43.2435 8.79833H17.754C16.9708 8.79833 16.3354 8.16141 16.3354 7.37638V1.42195C16.3354 0.636916 16.9708 0 17.754 0ZM41.825 2.8439H19.1725V5.95442H41.825V2.8439Z" fill="black"/>
<path d="M46.4624 67.7155H14.9785V70.5594H46.4624V67.7155Z" fill="black"/>
<path d="M48.3119 74.9981H13.1265V77.842H48.3119V74.9981Z" fill="black"/>
<path d="M49.8067 82.2806H11.634V85.1245H49.8067V82.2806Z" fill="black"/>
</g>
<defs>
<clipPath id="clip0_1_112">
<rect width="61" height="91" fill="white"/>
</clipPath>
</defs>
</svg>
