<svg width="108" height="74" viewBox="0 0 108 74" fill="none" xmlns="http://www.w3.org/2000/svg">
<g clip-path="url(#clip0_1_548)">
<path d="M34.42 72.8087C54.1877 74.1191 71.3303 59.3198 72.7371 39.5421C73.519 28.4868 69.216 18.2506 61.8101 11.1264C60.1702 9.54467 58.3783 8.12181 56.4607 6.8793C51.8998 3.91116 46.6099 1.95391 40.8687 1.32851C40.4174 1.27557 39.9578 1.2309 39.4999 1.20112C37.6567 1.07372 35.835 1.08034 34.0447 1.2309C16.6674 2.62397 2.36977 16.5266 1.18946 34.4661C-0.119788 54.3116 14.7796 71.505 34.42 72.8087Z" stroke="black" stroke-width="1.75" stroke-linecap="round" stroke-linejoin="round"/>
<path d="M9.78784 35.0728C8.78937 50.1534 20.1131 63.2139 35.0356 64.2033C50.0506 65.1993 63.077 53.9554 64.1416 38.9344C65.2062 23.9117 53.9023 10.8694 38.8939 9.80389C23.8838 8.73841 10.783 20.0468 9.78784 35.0728V35.0728Z" stroke="black" stroke-width="1.75" stroke-linecap="round" stroke-linejoin="round"/>
<path d="M34.8589 39.5293L18.2734 55.7962" stroke="black" stroke-width="1.75" stroke-linecap="round" stroke-linejoin="round"/>
<path d="M36.9609 9.77539V14.8762" stroke="black" stroke-width="1.75" stroke-linecap="round" stroke-linejoin="round"/>
<path d="M36.9609 58.8457V63.9465" stroke="black" stroke-width="1.75" stroke-linecap="round" stroke-linejoin="round"/>
<path d="M9.89844 36.8613H14.9949" stroke="black" stroke-width="1.75" stroke-linecap="round" stroke-linejoin="round"/>
<path d="M17.8281 17.709L21.4319 21.3158" stroke="black" stroke-width="1.75" stroke-linecap="round" stroke-linejoin="round"/>
<path d="M39.6774 37.6165C39.7832 39.1155 38.6558 40.4159 37.1597 40.5218C35.662 40.6277 34.3627 39.4993 34.2569 38.002C34.1511 36.503 35.2785 35.2026 36.7745 35.0967C38.2722 34.9908 39.5716 36.1192 39.6774 37.6165Z" stroke="black" stroke-width="1.75" stroke-linecap="round" stroke-linejoin="round"/>
<path d="M91.9529 11.7188H68.4922" stroke="black" stroke-width="1.75" stroke-linecap="round" stroke-linejoin="round"/>
<path d="M106.893 36.7656H79.1406" stroke="black" stroke-width="1.75" stroke-linecap="round" stroke-linejoin="round"/>
<path d="M91.9529 61.8125H68.4922" stroke="black" stroke-width="1.75" stroke-linecap="round" stroke-linejoin="round"/>
</g>
<defs>
<clipPath id="clip0_1_548">
<rect width="108" height="74" fill="white"/>
</clipPath>
</defs>
</svg>
