<svg width="68" height="68" viewBox="0 0 68 68" fill="none" xmlns="http://www.w3.org/2000/svg">
<g clip-path="url(#clip0_1_639)">
<path d="M34.0011 41.5849C33.3227 41.5849 32.6442 41.3742 32.0664 40.9544C31.8956 40.8299 31.6913 40.7645 31.4774 40.7645C30.0471 40.7645 28.7908 39.8514 28.3471 38.4914C28.2816 38.2887 28.1555 38.1147 27.9831 37.9902C26.8258 37.149 26.3453 35.6708 26.7875 34.3108C26.8513 34.1113 26.8513 33.891 26.7875 33.6915C26.3453 32.3315 26.8258 30.8534 27.9831 30.0138C28.1555 29.8892 28.2816 29.7137 28.3471 29.5109C28.7892 28.1509 30.0471 27.2379 31.4758 27.2379C31.6897 27.2379 31.894 27.1724 32.0664 27.0463C33.2237 26.2067 34.7769 26.2051 35.9342 27.0463C36.1066 27.1708 36.3109 27.2379 36.5248 27.2379C37.9551 27.2379 39.2129 28.1509 39.6551 29.5109C39.7206 29.7137 39.8467 29.8876 40.0191 30.0122C41.1764 30.8534 41.6568 32.3315 41.2147 33.6931C41.1508 33.8926 41.1508 34.1129 41.2147 34.3124C41.6568 35.6724 41.1764 37.1506 40.0191 37.9918C39.8467 38.1179 39.7206 38.2903 39.6551 38.4946C39.2129 39.8546 37.9551 40.7676 36.5248 40.7676C36.3109 40.7676 36.1066 40.8331 35.9342 40.9592C35.3563 41.379 34.6779 41.5897 34.0011 41.5897V41.5849ZM34.0011 28.7016C33.7952 28.7016 33.5876 28.7655 33.4121 28.8932C32.8454 29.305 32.1765 29.5221 31.4774 29.5221C31.0416 29.5221 30.6585 29.8014 30.5244 30.2149C30.3073 30.8805 29.8938 31.4504 29.3288 31.8606C28.976 32.116 28.8307 32.5677 28.9648 32.9812C29.1803 33.6468 29.1803 34.3491 28.9648 35.0148C28.8291 35.4298 28.976 35.8799 29.3288 36.1369C29.8938 36.5472 30.3073 37.1154 30.5244 37.7811C30.6585 38.1961 31.0416 38.4738 31.4774 38.4738C32.1781 38.4738 32.8454 38.6909 33.4121 39.1012C33.7648 39.3582 34.2373 39.3582 34.5901 39.1012C35.1568 38.6909 35.8256 38.4722 36.5248 38.4722C36.9606 38.4722 37.3437 38.1929 37.4778 37.7795C37.6949 37.1138 38.1083 36.5456 38.6734 36.1337C39.0262 35.8784 39.1714 35.4266 39.0373 35.0132C38.8219 34.3476 38.8219 33.6452 39.0373 32.9796C39.1714 32.5645 39.0262 32.1128 38.6734 31.8574C38.1083 31.4488 37.6949 30.8789 37.4778 30.2133C37.3421 29.7983 36.959 29.5205 36.5232 29.5205C35.824 29.5205 35.1552 29.3034 34.5885 28.8932C34.4113 28.7655 34.2054 28.7 33.9979 28.7L34.0011 28.7016Z" fill="black"/>
<path d="M34.0039 28.7038C33.3718 28.7038 32.8594 28.1914 32.8594 27.5593V24.8457C32.8594 24.2136 33.3718 23.7012 34.0039 23.7012C34.636 23.7012 35.1484 24.2136 35.1484 24.8457V27.5593C35.1484 28.1914 34.636 28.7038 34.0039 28.7038Z" fill="black"/>
<path d="M37.8472 29.9816C37.5806 29.9816 37.3108 29.8874 37.0937 29.6991C36.618 29.2824 36.5702 28.5609 36.9868 28.0852L38.9151 25.8808C39.3301 25.4052 40.0532 25.3573 40.5289 25.7739C41.0046 26.1905 41.0525 26.912 40.6375 27.3877L38.7092 29.5921C38.4825 29.8507 38.1664 29.9832 37.8472 29.9832V29.9816Z" fill="black"/>
<path d="M40.1438 33.2208C39.6601 33.2208 39.2116 32.9112 39.0551 32.4275C38.862 31.8257 39.1924 31.1824 39.7942 30.9877L42.8655 30.0012C43.4641 29.8112 44.1106 30.1385 44.3037 30.7403C44.4969 31.342 44.1664 31.9853 43.5646 32.1801L40.4934 33.1666C40.3769 33.2033 40.2587 33.2208 40.1438 33.2208Z" fill="black"/>
<path d="M34.0039 44.2976C33.3718 44.2976 32.8594 43.7852 32.8594 43.153V40.4394C32.8594 39.8073 33.3718 39.2949 34.0039 39.2949C34.636 39.2949 35.1484 39.8073 35.1484 40.4394V43.153C35.1484 43.7852 34.636 44.2976 34.0039 44.2976Z" fill="black"/>
<path d="M39.7765 42.5105C39.4589 42.5105 39.1412 42.378 38.9146 42.1194L36.9862 39.915C36.5696 39.4394 36.6191 38.7163 37.0932 38.3012C37.5689 37.8846 38.292 37.9325 38.707 38.4082L40.6353 40.6126C41.052 41.0883 41.0025 41.8114 40.5268 42.2264C40.3097 42.4163 40.0415 42.5089 39.7734 42.5089L39.7765 42.5105Z" fill="black"/>
<path d="M43.2166 38.0525C43.1001 38.0525 42.982 38.0349 42.8655 37.9982L39.7942 37.0102C39.1924 36.8154 38.862 36.1721 39.0551 35.5703C39.2483 34.9686 39.8916 34.6413 40.495 34.8313L43.5662 35.8194C44.168 36.0125 44.4985 36.6574 44.3053 37.2592C44.1489 37.7444 43.7003 38.0525 43.2166 38.0525Z" fill="black"/>
<path d="M30.1514 29.9826C29.8321 29.9826 29.5161 29.8502 29.2894 29.5916L27.3611 27.3871C26.9445 26.9115 26.9939 26.1884 27.4696 25.7733C27.9453 25.3567 28.6684 25.4062 29.0835 25.8803L31.0118 28.0847C31.4284 28.5604 31.3789 29.2819 30.9032 29.6985C30.6861 29.8885 30.418 29.981 30.1498 29.981L30.1514 29.9826Z" fill="black"/>
<path d="M27.8557 33.2208C27.7391 33.2208 27.621 33.2033 27.5061 33.1666L24.4348 32.1801C23.833 31.9853 23.5026 31.342 23.6958 30.7403C23.8889 30.1385 24.5354 29.8112 25.134 30.0012L28.2053 30.9877C28.8071 31.1824 29.1375 31.8257 28.9443 32.4275C28.7879 32.9112 28.3393 33.2208 27.8557 33.2208Z" fill="black"/>
<path d="M28.2224 42.5096C27.9559 42.5096 27.6861 42.417 27.469 42.227C26.9933 41.812 26.9454 41.0889 27.3604 40.6132L29.2888 38.4088C29.7054 37.9331 30.4269 37.8837 30.9026 38.3019C31.3783 38.7169 31.4262 39.44 31.0111 39.9157L29.0828 42.1201C28.8562 42.3787 28.5401 42.5112 28.2208 42.5112L28.2224 42.5096Z" fill="black"/>
<path d="M24.7844 38.0525C24.3008 38.0525 23.8522 37.7444 23.6958 37.2592C23.5026 36.6574 23.833 36.0125 24.4348 35.8194L27.5061 34.8313C28.1079 34.6413 28.7528 34.9686 28.9459 35.5703C29.1391 36.1721 28.8087 36.8154 28.2069 37.0102L25.1356 37.9982C25.0191 38.0349 24.901 38.0525 24.7844 38.0525Z" fill="black"/>
<path d="M34.0031 49.1364C25.6578 49.1364 18.8672 42.3476 18.8672 34.0008C18.8672 25.6541 25.6578 18.8652 34.0031 18.8652C42.3485 18.8652 49.1391 25.6557 49.1391 34.0008C49.1391 42.346 42.3485 49.1364 34.0031 49.1364ZM34.0031 21.1527C26.9188 21.1527 21.1547 26.9167 21.1547 34.0008C21.1547 41.085 26.9188 46.849 34.0031 46.849C41.0874 46.849 46.8516 41.085 46.8516 34.0008C46.8516 26.9167 41.0874 21.1527 34.0031 21.1527Z" fill="black"/>
<path d="M33.9991 12.7652C30.4793 12.7652 27.6172 9.9015 27.6172 6.38178C27.6172 2.86207 30.4793 0 33.9991 0C37.5189 0 40.3827 2.86366 40.3827 6.38338C40.3827 9.9031 37.5189 12.7668 33.9991 12.7668V12.7652ZM33.9991 2.28742C31.7404 2.28742 29.9047 4.12469 29.9047 6.38178C29.9047 8.63887 31.7404 10.4761 33.9991 10.4761C36.2579 10.4761 38.0936 8.63887 38.0936 6.38178C38.0936 4.12469 36.2563 2.28742 33.9991 2.28742Z" fill="black"/>
<path d="M14.4757 20.8554C12.7709 20.8554 11.1682 20.1913 9.963 18.9862C8.7578 17.781 8.09375 16.1784 8.09375 14.4736C8.09375 12.7688 8.7578 11.1662 9.963 9.961C11.1682 8.75583 12.7709 8.0918 14.4757 8.0918C16.1805 8.0918 17.7832 8.75583 18.9884 9.961C20.1936 11.1662 20.8576 12.7688 20.8576 14.4736C20.8576 16.1784 20.1936 17.781 18.9884 18.9862C17.7832 20.1913 16.1805 20.8554 14.4757 20.8554ZM14.4757 10.3808C13.4269 10.3808 12.3782 10.7799 11.58 11.578C10.8058 12.3522 10.3812 13.3802 10.3812 14.4736C10.3812 15.567 10.8074 16.595 11.58 17.3692C13.1763 18.9654 15.7735 18.9654 17.3713 17.3692C18.1455 16.595 18.5701 15.567 18.5701 14.4736C18.5701 13.3802 18.1439 12.3522 17.3713 11.578C16.5732 10.7799 15.5244 10.3808 14.4757 10.3808Z" fill="black"/>
<path d="M6.38353 40.3818C2.86373 40.3818 0 37.5182 0 33.9984C0 30.4787 2.86373 27.6151 6.38353 27.6151C9.90333 27.6151 12.7655 30.4787 12.7655 33.9984C12.7655 37.5182 9.90174 40.3818 6.38353 40.3818ZM6.38353 29.9041C4.12479 29.9041 2.28907 31.7413 2.28907 33.9984C2.28907 36.2555 4.12639 38.0928 6.38353 38.0928C8.64067 38.0928 10.478 36.2555 10.478 33.9984C10.478 31.7413 8.64067 29.9041 6.38353 29.9041Z" fill="black"/>
<path d="M14.4757 59.9101C12.7709 59.9101 11.1682 59.246 9.963 58.0409C8.7578 56.8357 8.09375 55.2331 8.09375 53.5283C8.09375 51.8235 8.7578 50.2209 9.963 49.0157C11.1682 47.8105 12.7709 47.1465 14.4757 47.1465C16.1805 47.1465 17.7832 47.8105 18.9884 49.0157C20.1936 50.2209 20.8576 51.8235 20.8576 53.5283C20.8576 55.2331 20.1936 56.8357 18.9884 58.0409C17.7832 59.246 16.1805 59.9101 14.4757 59.9101ZM14.4757 49.4339C13.4269 49.4339 12.3798 49.833 11.58 50.6311C10.8058 51.4037 10.3812 52.4332 10.3812 53.5267C10.3812 54.6201 10.8074 55.6497 11.58 56.4223C13.1763 58.0185 15.7735 58.0185 17.3713 56.4223C18.1455 55.6497 18.5701 54.6201 18.5701 53.5267C18.5701 52.4332 18.1439 51.4037 17.3713 50.6311C16.5732 49.833 15.5244 49.4339 14.4757 49.4339Z" fill="black"/>
<path d="M33.9991 67.9992C30.4793 67.9992 27.6172 65.1355 27.6172 61.6158C27.6172 58.0961 30.4809 55.2324 33.9991 55.2324C37.5173 55.2324 40.3827 58.0961 40.3827 61.6158C40.3827 65.1355 37.5189 67.9992 33.9991 67.9992ZM33.9991 57.5214C31.7404 57.5214 29.9047 59.3571 29.9047 61.6158C29.9047 63.8745 31.7404 65.7102 33.9991 65.7102C36.2579 65.7102 38.0936 63.8729 38.0936 61.6158C38.0936 59.3587 36.2563 57.5214 33.9991 57.5214Z" fill="black"/>
<path d="M53.5304 59.9101C51.8255 59.9101 50.2229 59.246 49.0177 58.0409C47.8125 56.8357 47.1484 55.2331 47.1484 53.5283C47.1484 51.8235 47.8125 50.2209 49.0177 49.0157C50.2229 47.8105 51.8255 47.1465 53.5304 47.1465C55.2352 47.1465 56.8379 47.8105 58.0431 49.0157C59.2483 50.2209 59.9123 51.8235 59.9123 53.5283C59.9123 55.2331 59.2483 56.8357 58.0431 58.0409C56.8379 59.246 55.2352 59.9101 53.5304 59.9101ZM53.5304 49.4339C52.4816 49.4339 51.4345 49.833 50.6347 50.6311C49.8605 51.4037 49.4359 52.4332 49.4359 53.5267C49.4359 54.6201 49.8621 55.6497 50.6347 56.4223C52.231 58.0185 54.8282 58.0185 56.426 56.4223C57.2002 55.6497 57.6248 54.6201 57.6248 53.5267C57.6248 52.4332 57.1986 51.4037 56.426 50.6311C55.6279 49.833 54.5791 49.4339 53.5304 49.4339Z" fill="black"/>
<path d="M61.6163 40.382C58.0965 40.382 55.2344 37.5183 55.2344 33.9986C55.2344 30.4789 58.0981 27.6152 61.6163 27.6152C65.1345 27.6152 67.9998 30.4789 67.9998 33.9986C67.9998 37.5183 65.1361 40.382 61.6163 40.382ZM61.6163 29.9042C59.3576 29.9042 57.5218 31.7415 57.5218 33.9986C57.5218 36.2557 59.3592 38.093 61.6163 38.093C63.8735 38.093 65.7108 36.2557 65.7108 33.9986C65.7108 31.7415 63.8735 29.9042 61.6163 29.9042Z" fill="black"/>
<path d="M53.5304 20.8554C51.8255 20.8554 50.2229 20.1913 49.0177 18.9862C47.8125 17.781 47.1484 16.1784 47.1484 14.4736C47.1484 12.7688 47.8125 11.1662 49.0177 9.961C50.2229 8.75583 51.8255 8.0918 53.5304 8.0918C55.2352 8.0918 56.8379 8.75583 58.0431 9.961C59.2483 11.1662 59.9123 12.7688 59.9123 14.4736C59.9123 16.1784 59.2483 17.781 58.0431 18.9862C56.8379 20.1913 55.2352 20.8554 53.5304 20.8554ZM53.5304 10.3808C52.4816 10.3808 51.4345 10.7799 50.6347 11.578C49.8605 12.3522 49.4359 13.3802 49.4359 14.4736C49.4359 15.567 49.8621 16.595 50.6347 17.3692C52.231 18.9654 54.8282 18.9654 56.426 17.3692C57.2002 16.595 57.6248 15.567 57.6248 14.4736C57.6248 13.3802 57.1986 12.3522 56.426 11.578C55.6279 10.7799 54.5791 10.3808 53.5304 10.3808Z" fill="black"/>
<path d="M34.0039 21.1522C33.3718 21.1522 32.8594 20.6398 32.8594 20.0077V11.6211C32.8594 10.989 33.3718 10.4766 34.0039 10.4766C34.636 10.4766 35.1484 10.989 35.1484 11.6211V20.0077C35.1484 20.6398 34.636 21.1522 34.0039 21.1522Z" fill="black"/>
<path d="M43.8867 25.2551C43.5946 25.2551 43.3009 25.1434 43.0774 24.9199C42.6304 24.4729 42.6304 23.7482 43.0774 23.3029L49.014 17.3665C49.4609 16.9195 50.1841 16.9195 50.631 17.3665C51.078 17.8134 51.078 18.5381 50.631 18.9835L44.6944 24.9199C44.471 25.1434 44.1788 25.2551 43.8851 25.2551H43.8867Z" fill="black"/>
<path d="M56.383 35.1425H47.9961C47.364 35.1425 46.8516 34.6301 46.8516 33.998C46.8516 33.3659 47.364 32.8535 47.9961 32.8535H56.383C57.0151 32.8535 57.5275 33.3659 57.5275 33.998C57.5275 34.6301 57.0151 35.1425 56.383 35.1425Z" fill="black"/>
<path d="M50.8096 51.9504C50.5175 51.9504 50.2238 51.8387 50.0003 51.6152L43.0852 44.7003C42.6383 44.2533 42.6383 43.5286 43.0852 43.0833C43.5322 42.6363 44.2553 42.6363 44.7023 43.0833L51.6173 49.9982C52.0643 50.4451 52.0643 51.1698 51.6173 51.6152C51.3939 51.8387 51.1017 51.9504 50.808 51.9504H50.8096Z" fill="black"/>
<path d="M34.0039 57.5214C33.3718 57.5214 32.8594 57.009 32.8594 56.3769V47.9902C32.8594 47.3581 33.3718 46.8457 34.0039 46.8457C34.636 46.8457 35.1484 47.3581 35.1484 47.9902V56.3769C35.1484 57.009 34.636 57.5214 34.0039 57.5214Z" fill="black"/>
<path d="M20.008 35.1425H11.6211C10.989 35.1425 10.4766 34.6301 10.4766 33.998C10.4766 33.3659 10.989 32.8535 11.6211 32.8535H20.008C20.6401 32.8535 21.1525 33.3659 21.1525 33.998C21.1525 34.6301 20.6401 35.1425 20.008 35.1425Z" fill="black"/>
<path d="M24.1153 25.258C23.8231 25.258 23.5294 25.1462 23.3059 24.9227L15.4602 17.0772C15.0133 16.6303 15.0133 15.9072 15.4602 15.4602C15.9072 15.0133 16.6303 15.0133 17.0773 15.4602L24.923 23.3058C25.3699 23.7527 25.3699 24.4758 24.923 24.9227C24.6995 25.1462 24.4074 25.258 24.1137 25.258H24.1153Z" fill="black"/>
<path d="M18.1758 50.9675C17.8837 50.9675 17.5899 50.8557 17.3665 50.6323C16.9195 50.1853 16.9195 49.4622 17.3665 49.0153L23.2967 43.0852C23.7436 42.6383 24.4667 42.6383 24.9137 43.0852C25.3606 43.5322 25.3606 44.2553 24.9137 44.7022L18.9835 50.6323C18.76 50.8557 18.4679 50.9675 18.1742 50.9675H18.1758Z" fill="black"/>
</g>
<defs>
<clipPath id="clip0_1_639">
<rect width="68" height="68" fill="white"/>
</clipPath>
</defs>
</svg>
