<svg width="46" height="71" viewBox="0 0 46 71" fill="none" xmlns="http://www.w3.org/2000/svg">
<g clip-path="url(#clip0_1_564)">
<path d="M14.8155 71.0008C8.24384 71.0008 2.89844 65.6735 2.89844 59.1242V14.3183C2.89844 13.6841 3.41433 13.1699 4.05077 13.1699H25.5818C26.2183 13.1699 26.7342 13.6841 26.7342 14.3183V59.1242C26.7342 65.6735 21.3872 71.0008 14.8155 71.0008ZM5.20149 15.4668V59.1242C5.20149 64.4066 9.5151 68.7055 14.8155 68.7055C20.1159 68.7055 24.4311 64.4066 24.4311 59.1242V15.4668H5.20149Z" fill="black"/>
<path d="M26.4682 15.466H3.16288C1.41912 15.466 0 14.0517 0 12.3138V6.65825C0 2.98716 2.99734 0 6.68094 0H22.9502C26.6338 0 29.6311 2.98716 29.6311 6.65825V12.3154C29.6311 14.0533 28.212 15.4676 26.4682 15.4676V15.466ZM6.68094 2.29523C4.267 2.29523 2.30466 4.2525 2.30466 6.65665V12.3138C2.30466 12.7863 2.69038 13.1691 3.16288 13.1691H26.4682C26.9424 13.1691 27.3265 12.7847 27.3265 12.3138V6.65825C27.3265 4.2525 25.3625 2.29683 22.9502 2.29683H6.68094V2.29523Z" fill="black"/>
<path d="M40.0087 22.7444C36.7044 22.7444 34.0156 19.6419 34.0156 15.8282C34.0156 12.0146 36.7044 8.91211 40.0087 8.91211C43.313 8.91211 46.0018 12.0146 46.0018 15.8282C46.0018 19.6419 43.313 22.7444 40.0087 22.7444ZM40.0087 11.2073C37.974 11.2073 36.3203 13.2799 36.3203 15.8266C36.3203 18.3733 37.9757 20.4475 40.0087 20.4475C42.0418 20.4475 43.6987 18.3749 43.6987 15.8266C43.6987 13.2783 42.0434 11.2073 40.0087 11.2073Z" fill="black"/>
<path d="M40.0087 64.7698C36.7044 64.7698 34.0156 61.6673 34.0156 57.8536C34.0156 54.04 36.7044 50.9375 40.0087 50.9375C43.313 50.9375 46.0018 54.04 46.0018 57.8536C46.0018 61.6673 43.313 64.7698 40.0087 64.7698ZM40.0087 53.2343C37.974 53.2343 36.3203 55.3069 36.3203 57.8536C36.3203 60.4003 37.9757 62.4729 40.0087 62.4729C42.0418 62.4729 43.6987 60.4003 43.6987 57.8536C43.6987 55.3069 42.0434 53.2343 40.0087 53.2343Z" fill="black"/>
<path d="M40.0039 53.234C39.3675 53.234 38.8516 52.7198 38.8516 52.0856V21.5957C38.8516 20.9614 39.3675 20.4473 40.0039 20.4473C40.6403 20.4473 41.1562 20.9614 41.1562 21.5957V52.084C41.1562 52.7182 40.6403 53.2324 40.0039 53.2324V53.234Z" fill="black"/>
<path d="M25.5828 59.4091H14.8165C10.9545 59.4091 7.8125 56.2777 7.8125 52.4289C7.8125 49.7028 9.39233 47.2634 11.8207 46.1214V33.9693C9.39233 32.8273 7.8125 30.3879 7.8125 27.6618C7.8125 23.813 10.9545 20.6816 14.8165 20.6816H25.5828C26.2192 20.6816 26.7351 21.1958 26.7351 21.8301V58.2606C26.7351 58.8949 26.2192 59.4091 25.5828 59.4091ZM14.8165 22.9785C12.2257 22.9785 10.1156 25.0799 10.1156 27.6634C10.1156 29.6848 11.4093 31.4691 13.3363 32.1065C13.8072 32.2619 14.1254 32.7008 14.1254 33.1957V46.8966C14.1254 47.3915 13.8072 47.8304 13.3363 47.9858C11.4109 48.6232 10.1156 50.4075 10.1156 52.4289C10.1156 55.0124 12.2241 57.1138 14.8165 57.1138H24.4321V22.9785H14.8165Z" fill="black"/>
<path d="M14.7583 30.2192C14.4546 30.2192 14.1621 30.0991 13.9435 29.8828L12.3219 28.2667C11.8719 27.8182 11.8719 27.0911 12.3219 26.6442C12.7719 26.1957 13.5015 26.1957 13.9499 26.6442L14.5189 27.2112L15.8753 24.9128C16.1983 24.3666 16.9055 24.1856 17.4519 24.5059C18 24.8263 18.1832 25.531 17.8601 26.0772L15.7483 29.6538C15.5683 29.9597 15.2549 30.1647 14.9014 30.2096C14.8515 30.216 14.8033 30.2192 14.7551 30.2192H14.7583Z" fill="black"/>
<path d="M13.207 55.3665C12.9129 55.3665 12.6172 55.2544 12.3922 55.0302C11.9422 54.5817 11.9422 53.8561 12.3922 53.4076L15.6033 50.2075C16.0533 49.759 16.7829 49.759 17.2313 50.2075C17.6813 50.6559 17.6813 51.3815 17.2313 51.83L14.0202 55.0302C13.7952 55.2544 13.5011 55.3665 13.2054 55.3665H13.207Z" fill="black"/>
<path d="M16.4181 55.3665C16.124 55.3665 15.8283 55.2544 15.6033 55.0302L12.3922 51.83C11.9422 51.3815 11.9422 50.6559 12.3922 50.2075C12.8422 49.759 13.5718 49.759 14.0202 50.2075L17.2313 53.4076C17.6813 53.8561 17.6813 54.5817 17.2313 55.0302C17.0063 55.2544 16.7122 55.3665 16.4165 55.3665H16.4181Z" fill="black"/>
<path d="M19.615 48.0449H12.9726C12.3362 48.0449 11.8203 47.5307 11.8203 46.8965C11.8203 46.2622 12.3362 45.748 12.9726 45.748H19.615C20.2514 45.748 20.7673 46.2622 20.7673 46.8965C20.7673 47.5307 20.2514 48.0449 19.615 48.0449Z" fill="black"/>
<path d="M19.615 34.3418H12.9726C12.3362 34.3418 11.8203 33.8276 11.8203 33.1933C11.8203 32.5591 12.3362 32.0449 12.9726 32.0449H19.615C20.2514 32.0449 20.7673 32.5591 20.7673 33.1933C20.7673 33.8276 20.2514 34.3418 19.615 34.3418Z" fill="black"/>
<path d="M21.0915 38.8847H16.8711C16.2346 38.8847 15.7188 38.3706 15.7188 37.7363C15.7188 37.102 16.2346 36.5879 16.8711 36.5879H21.0915C21.7279 36.5879 22.2438 37.102 22.2438 37.7363C22.2438 38.3706 21.7279 38.8847 21.0915 38.8847Z" fill="black"/>
<path d="M21.0915 43.5019H16.8711C16.2346 43.5019 15.7188 42.9878 15.7188 42.3535C15.7188 41.7192 16.2346 41.2051 16.8711 41.2051H21.0915C21.7279 41.2051 22.2438 41.7192 22.2438 42.3535C22.2438 42.9878 21.7279 43.5019 21.0915 43.5019Z" fill="black"/>
<path d="M8.30858 9.61819C7.67215 9.61819 7.15625 9.10404 7.15625 8.46977V1.14842C7.15625 0.514145 7.67215 0 8.30858 0C8.94501 0 9.46091 0.514145 9.46091 1.14842V8.46977C9.46091 9.10404 8.94501 9.61819 8.30858 9.61819Z" fill="black"/>
<path d="M14.8164 9.61819C14.18 9.61819 13.6641 9.10404 13.6641 8.46977V1.14842C13.6641 0.514145 14.18 0 14.8164 0C15.4528 0 15.9687 0.514145 15.9687 1.14842V8.46977C15.9687 9.10404 15.4528 9.61819 14.8164 9.61819Z" fill="black"/>
<path d="M21.3242 9.61819C20.6878 9.61819 20.1719 9.10404 20.1719 8.46977V1.14842C20.1719 0.514145 20.6878 0 21.3242 0C21.9606 0 22.4765 0.514145 22.4765 1.14842V8.46977C22.4765 9.10404 21.9606 9.61819 21.3242 9.61819Z" fill="black"/>
</g>
<defs>
<clipPath id="clip0_1_564">
<rect width="46" height="71" fill="white"/>
</clipPath>
</defs>
</svg>
