<svg width="47" height="64" viewBox="0 0 47 64" fill="none" xmlns="http://www.w3.org/2000/svg">
<path d="M11.0626 35.2589C11.0357 35.3047 10.3941 36.3529 8.81077 36.9011C8.33259 37.0653 8.08131 37.5821 8.24721 38.0554C8.37895 38.4298 8.7327 38.6616 9.11085 38.6616C9.21087 38.6616 9.31334 38.6447 9.41337 38.6109C11.6774 37.8284 12.6142 36.2249 12.6532 36.1572C12.8996 35.725 12.7459 35.1792 12.3117 34.9328C11.8774 34.6841 11.3187 34.8338 11.065 35.2589H11.0626ZM5.27082 38.6399C1.74795 31.3562 5.10492 28.7262 5.21959 28.6369L5.36597 28.5258C16.142 19.4115 41.3046 3.49895 41.5584 3.33956C42.4098 2.80101 42.6611 1.68044 42.117 0.837597C41.573 -0.00524471 40.4434 -0.253992 39.5896 0.284558C38.5503 0.941443 14.0194 16.4555 3.03121 25.7389C2.2066 26.3692 -2.65808 30.6317 1.9724 40.2048C5.84658 48.2106 9.74516 62.5123 9.78419 62.6572C10.0038 63.4663 10.743 64 11.5505 64C11.7066 64 11.8677 63.9783 12.0262 63.9372C13.0021 63.6788 13.5803 62.6838 13.3193 61.7178C13.1558 61.1189 9.29382 46.9524 5.27326 38.6423L5.27082 38.6399ZM46.9183 31.4576C46.6182 30.5013 45.5911 29.9724 44.625 30.2694C44.0322 30.453 30.0505 34.7879 23.2365 37.7656C23.2097 37.7777 23.1877 37.7946 23.1609 37.8091C23.1048 37.8381 23.0486 37.8671 22.995 37.9009C22.9462 37.9323 22.8974 37.9637 22.851 37.9999C22.8022 38.0361 22.7583 38.0772 22.7144 38.1182C22.6705 38.1593 22.6315 38.2003 22.5924 38.2438C22.5534 38.2873 22.5192 38.3332 22.4851 38.3815C22.4509 38.4298 22.4192 38.4781 22.3899 38.5264C22.3607 38.5771 22.3363 38.6278 22.3119 38.6809C22.2875 38.7341 22.2655 38.7848 22.2484 38.8403C22.2289 38.8959 22.2143 38.9538 22.1996 39.0094C22.1874 39.0649 22.1752 39.1205 22.1679 39.1784C22.1606 39.2364 22.1557 39.2944 22.1533 39.3523C22.1533 39.4127 22.1533 39.4706 22.1533 39.531C22.1557 39.589 22.163 39.6445 22.1728 39.7025C22.1826 39.7653 22.1948 39.8257 22.2118 39.8884C22.2192 39.9174 22.2216 39.944 22.2289 39.973C22.3045 40.2048 22.7656 41.4824 24.5124 43.7694C29.3649 50.1233 30.3383 62.2032 30.3457 62.324C30.4189 63.2755 31.2215 64 32.1681 64C32.2145 64 32.2608 64 32.3072 63.9952C33.3147 63.9203 34.071 63.0509 33.9954 62.0535C33.9539 61.5149 32.9366 48.7975 27.4327 41.5862C27.0619 41.0984 26.7691 40.6806 26.5349 40.3232C33.6343 37.4758 45.5838 33.7712 45.7155 33.7301C46.6792 33.4307 47.2184 32.4164 46.9159 31.4624L46.9183 31.4576Z" fill="black"/>
</svg>
