<svg width="64" height="59" viewBox="0 0 64 59" fill="none" xmlns="http://www.w3.org/2000/svg">
<path d="M47.0722 45.3209C48.9096 45.3209 50.6359 44.6122 51.9349 43.324C54.615 40.6662 54.615 36.3396 51.9349 33.6794C51.58 33.3298 51.0078 33.3298 50.6553 33.6794C50.3027 34.029 50.3027 34.5989 50.6553 34.9484C52.6303 36.907 52.6303 40.0964 50.6553 42.055C49.6967 43.0031 48.4243 43.5275 47.0722 43.5275C45.7201 43.5275 44.4477 43.0055 43.4892 42.055C43.1366 41.703 42.562 41.703 42.2095 42.055C41.857 42.4045 41.857 42.9744 42.2095 43.324C43.5085 44.6122 45.2348 45.3209 47.0722 45.3209ZM62.3678 39.3756C60.6439 34.3594 60.7211 30.186 60.7211 30.186L62.3678 1.89876C62.4257 0.907485 61.6628 0.0598736 60.6632 0.0024084C59.6733 -0.0478736 58.8089 0.701568 58.7509 1.69284L57.1019 30.0352C57.097 30.2291 56.9908 34.8646 58.9393 40.5345C60.3083 44.5188 61.1919 50.1073 59.1686 52.7435C58.1787 54.0341 56.5031 54.592 54.0379 54.4507C42.999 53.8138 35.9271 53.7204 27.8966 54.9631C20.4987 56.11 15.5225 54.6638 15.4766 54.6494L15.0275 54.5129L14.5688 54.6087C13.0091 54.9367 8.39744 55.4156 5.82846 53.7204C2.9625 51.8264 3.6144 49.1663 3.88241 48.3977C4.06108 47.8829 4.14317 47.6482 6.56487 48.2612L6.95843 48.3594C8.75237 48.8047 12.7266 48.8718 13.8758 48.1104L13.9773 48.0433C16.7225 46.214 26.1582 40.003 32.2812 36.8591C39.5608 33.1191 39.9109 29.6066 39.853 28.6416L39.4136 1.76467C39.3966 0.782977 38.5902 -0.00238037 37.6027 -0.00238037H37.5737C36.5741 0.0143803 35.775 0.830865 35.7919 1.82214L36.2313 28.7518L36.2458 28.9457C36.2458 28.9625 35.7508 31.0312 30.6153 33.6674C24.4053 36.8568 14.9986 43.0367 12.0722 44.9833C11.3769 45.1078 9.21594 45.2132 7.83729 44.8708L7.46305 44.7774C5.62806 44.3105 1.8108 43.3407 0.458709 47.222C-0.787151 50.8088 0.531142 54.5297 3.82205 56.7038C7.58618 59.1916 13.2336 58.478 14.8706 58.2003C15.8798 58.4517 18.485 58.9928 22.213 58.9928C24.0431 58.9928 26.1413 58.8635 28.4543 58.5044C36.1613 57.312 43.0425 57.4077 53.8254 58.0303C57.534 58.2458 60.2986 57.1946 62.0491 54.9128C65.5742 50.3156 63.4446 42.5123 62.363 39.3709L62.3678 39.3756Z" fill="black"/>
</svg>
