<svg width="83" height="85" viewBox="0 0 83 85" fill="none" xmlns="http://www.w3.org/2000/svg">
<path d="M15.4318 75.815C14.2678 75.815 13.3231 76.7438 13.3231 77.8882V82.9136C13.3231 84.058 14.2678 84.9867 15.4318 84.9867C16.5957 84.9867 17.5404 84.058 17.5404 82.9136V77.8882C17.5404 76.7438 16.5957 75.815 15.4318 75.815ZM67.5644 75.815C66.4005 75.815 65.4558 76.7438 65.4558 77.8882V82.9136C65.4558 84.058 66.4005 84.9867 67.5644 84.9867C68.7284 84.9867 69.6731 84.058 69.6731 82.9136V77.8882C69.6731 76.7438 68.7284 75.815 67.5644 75.815ZM70.1286 56.6423L55.2398 52.5657L53.3167 45.3875C53.3167 45.3875 53.3133 45.3776 53.3099 45.3709C54.5751 43.5897 55.6548 41.5364 56.532 39.304C56.6534 39.2708 56.7749 39.2244 56.8896 39.1581C62.5813 35.9538 63.6305 30.1223 63.8161 28.4141C63.9342 27.3227 64.0826 24.6724 62.8782 23.6043C62.4733 23.246 62.0212 23.0702 61.5522 23.0172C64.1197 8.28273 54.2614 0 41.5352 0C22.3853 0 21.643 16.8806 22.0074 23.0105C21.336 22.9508 20.6815 23.1034 20.118 23.601C18.9136 24.6691 19.062 27.3227 19.1801 28.4141C19.3657 30.1257 20.4183 35.9538 26.1066 39.1581C26.2888 39.2609 26.4845 39.3073 26.6768 39.3305C27.5101 41.49 28.5324 43.4901 29.7402 45.2349C29.7234 45.288 29.6964 45.3344 29.6829 45.3875L27.7598 52.5657L12.871 56.6423C11.7509 56.9442 1.58211 60.2978 0.00652663 82.7709C-0.0744457 83.912 0.802754 84.9038 1.96673 84.9801C2.01734 84.9801 2.06457 84.9834 2.11518 84.9834C3.21168 84.9834 4.13949 84.1475 4.21709 83.0529C5.61049 63.1803 13.8832 60.666 13.9203 60.6527C13.9473 60.6461 13.9776 60.6394 14.0046 60.6328L30.0574 56.2377C30.7794 56.0386 31.3394 55.4814 31.5317 54.7682L33.0871 48.9633C35.4893 50.9867 38.3503 52.1875 41.6465 52.1875C44.9428 52.1875 47.5744 51.0299 49.9496 49.0628L51.4779 54.7682C51.6702 55.4814 52.2303 56.0386 52.9523 56.2377L69.0051 60.6328C69.0321 60.6394 69.0624 60.6494 69.0894 60.6527C69.1738 60.6726 77.3992 63.114 78.7926 83.0661C78.8702 84.1608 79.7946 84.9967 80.8945 84.9967C80.9417 84.9967 80.9923 84.9967 81.043 84.9934C82.2036 84.9138 83.0808 83.9253 83.0032 82.7842C81.4309 60.2978 71.2588 56.9409 70.1387 56.639L70.1286 56.6423ZM59.2074 27.0773C59.7776 26.6195 60.4389 26.1982 60.8842 26.0125C61.1474 27.4753 60.7897 31.4923 58.0502 34.5374C58.6474 32.1325 59.0354 29.6148 59.2074 27.0773ZM22.112 26.0125C22.6147 26.2248 23.4109 26.7356 24.0182 27.263C24.0384 27.2796 24.0621 27.2929 24.0823 27.3095C24.2645 29.8835 24.6626 32.441 25.2733 34.8857C22.2334 31.8074 21.8387 27.535 22.112 26.0125ZM41.6398 48.0445C33.6134 48.0445 28.5425 36.448 28.2018 25.2761C38.1344 24.5928 44.7269 19.9389 48.293 16.5157C49.7269 19.05 52.4429 20.8843 55.0205 22.1448C55.0677 22.775 55.0981 23.4185 55.0981 24.0853C55.0981 35.6088 49.9529 48.0445 41.6398 48.0445Z" fill="black"/>
</svg>
