<svg width="79" height="82" viewBox="0 0 79 82" fill="none" xmlns="http://www.w3.org/2000/svg">
<g clip-path="url(#clip0_1_230)">
<path d="M14.6884 73.1392C13.5805 73.1392 12.6814 74.0352 12.6814 75.1392V79.9872C12.6814 81.0912 13.5805 81.9872 14.6884 81.9872C15.7963 81.9872 16.6955 81.0912 16.6955 79.9872V75.1392C16.6955 74.0352 15.7963 73.1392 14.6884 73.1392ZM64.3087 73.1392C63.2008 73.1392 62.3016 74.0352 62.3016 75.1392V79.9872C62.3016 81.0912 63.2008 81.9872 64.3087 81.9872C65.4166 81.9872 66.3157 81.0912 66.3157 79.9872V75.1392C66.3157 74.0352 65.4166 73.1392 64.3087 73.1392ZM66.7492 54.6432L52.578 50.7104L50.7476 43.7856C50.7476 43.7856 50.7444 43.776 50.7411 43.7696C51.9454 42.0512 52.973 40.0704 53.8079 37.9168C53.9235 37.8848 54.0391 37.84 54.1483 37.776C59.5657 34.6848 60.5644 29.0592 60.741 27.4112C60.8534 26.3584 60.9947 23.8016 59.8483 22.7712C59.4629 22.4256 59.0326 22.256 58.5862 22.2048C61.03 7.9904 51.6467 0 39.5339 0C21.3068 0 20.6003 16.2848 20.9472 22.1984C20.3081 22.1408 19.6851 22.288 19.1489 22.768C18.0024 23.7984 18.1437 26.3584 18.2561 27.4112C18.4327 29.0624 19.4347 34.6848 24.8488 37.776C25.0222 37.8752 25.2085 37.92 25.3915 37.9424C26.1847 40.0256 27.1577 41.9552 28.3073 43.6384C28.2913 43.6896 28.2656 43.7344 28.2528 43.7856L26.4223 50.7104L12.2511 54.6432C11.1849 54.9344 1.50624 58.1696 0.00658198 79.8496C-0.0704881 80.9504 0.764437 81.9072 1.87232 81.9808C1.92049 81.9808 1.96545 81.984 2.01361 81.984C3.05727 81.984 3.94037 81.1776 4.01422 80.1216C5.34047 60.9504 13.2145 58.5248 13.2498 58.512C13.2755 58.5056 13.3044 58.4992 13.3301 58.4928L28.6092 54.2528C29.2964 54.0608 29.8295 53.5232 30.0125 52.8352L31.4929 47.2352C33.7793 49.1872 36.5025 50.3456 39.6398 50.3456C42.7772 50.3456 45.282 49.2288 47.5427 47.3312L48.9974 52.8352C49.1805 53.5232 49.7135 54.0608 50.4007 54.2528L65.6799 58.4928C65.7056 58.4992 65.7345 58.5088 65.7602 58.512C65.8404 58.5312 73.6695 60.8864 74.9957 80.1344C75.0696 81.1904 75.9495 81.9968 76.9963 81.9968C77.0413 81.9968 77.0895 81.9968 77.1376 81.9936C78.2423 81.9168 79.0772 80.9632 79.0034 79.8624C77.5069 58.1696 67.825 54.9312 66.7589 54.64L66.7492 54.6432ZM56.3544 26.1216C56.8971 25.68 57.5265 25.2736 57.9504 25.0944C58.2009 26.5056 57.8605 30.3808 55.253 33.3184C55.8213 30.9984 56.1906 28.5696 56.3544 26.1216ZM21.0467 25.0944C21.5252 25.2992 22.283 25.792 22.8611 26.3008C22.8803 26.3168 22.9028 26.3296 22.9221 26.3456C23.0955 28.8288 23.4744 31.296 24.0556 33.6544C21.1623 30.6848 20.7866 26.5632 21.0467 25.0944ZM39.6334 46.3488C31.9939 46.3488 27.1673 35.1616 26.843 24.384C36.2969 23.7248 42.5717 19.2352 45.966 15.9328C47.3308 18.3776 49.9159 20.1472 52.3692 21.3632C52.4142 21.9712 52.4431 22.592 52.4431 23.2352C52.4431 34.352 47.5459 46.3488 39.6334 46.3488Z" fill="black"/>
</g>
<defs>
<clipPath id="clip0_1_230">
<rect width="79" height="82" fill="white"/>
</clipPath>
</defs>
</svg>
