<svg width="60" height="79" viewBox="0 0 60 79" fill="none" xmlns="http://www.w3.org/2000/svg">
<path d="M59.8414 31.9249C59.3895 30.1094 58.0367 28.7441 56.1333 28.1806C55.1037 27.8766 51.4286 27.0597 47.4571 29.3135C45.0988 30.649 43.1504 32.7775 41.6241 35.6633V12.7235C41.6241 9.01792 38.5984 6.004 34.8783 6.004C33.9415 6.004 33.0497 6.19479 32.2386 6.5406C32.1429 2.91853 29.162 0 25.5018 0C21.8416 0 18.756 3.01392 18.756 6.71947V7.87019C17.9479 7.52736 17.0591 7.33657 16.1253 7.33657C12.5249 7.33657 9.58599 10.1627 9.39745 13.7013C8.57741 13.3435 7.67059 13.1438 6.71887 13.1438C3.01377 13.1438 0 16.1458 0 19.8365V65.0692L2.05906 72.7217L2.01117 76.7373C1.99621 77.9715 2.98982 78.9851 4.22885 79H4.25579C5.48284 79 6.48543 78.0162 6.5004 76.791L6.53332 74.0036C8.63727 74.3554 11.8306 74.7698 15.1736 74.7698C15.7332 74.7698 16.2959 74.7578 16.8585 74.731C17.4781 74.7042 17.9569 74.1795 17.927 73.5624C17.9 72.9453 17.3972 72.4743 16.7538 72.4981C12.8033 72.677 8.72705 72.1136 6.43156 71.7141L4.48324 64.4789V19.8365C4.48324 18.6112 5.48284 17.6155 6.7099 17.6155C7.93695 17.6155 8.93655 18.6112 8.93655 19.8365V36.2446C8.93655 37.4788 9.94214 38.4805 11.1812 38.4805C11.2261 38.4805 11.268 38.4685 11.3158 38.4655C11.4146 38.4775 11.5134 38.4954 11.6151 38.4954C12.8541 38.4954 13.8597 37.4937 13.8597 36.2595V14.059C13.8597 12.8189 14.8713 11.8112 16.1163 11.8112C17.3613 11.8112 18.3729 12.8189 18.3729 14.059V36.2625C18.3729 37.4967 19.3785 38.4983 20.6175 38.4983C20.6804 38.4983 20.7432 38.4834 20.8031 38.4805C20.8659 38.4864 20.9258 38.4983 20.9886 38.4983C22.2277 38.4983 23.2332 37.4967 23.2332 36.2625V6.71947C23.2332 5.47932 24.2448 4.4717 25.4898 4.4717C26.7348 4.4717 27.7464 5.47932 27.7464 6.71947V36.2625C27.7464 37.4967 28.752 38.4983 29.991 38.4983C30.0539 38.4983 30.1167 38.4834 30.1766 38.4805C30.2394 38.4864 30.2993 38.4983 30.3621 38.4983C31.6012 38.4983 32.6067 37.4967 32.6067 36.2625V12.7235C32.6067 11.4833 33.6183 10.4757 34.8633 10.4757C36.1083 10.4757 37.1199 11.4833 37.1199 12.7235V36.5189L38.2183 41.1963H14.4314C13.8119 41.1963 13.3091 41.6971 13.3091 42.3142C13.3091 42.9313 13.8119 43.4321 14.4314 43.4321H38.757L38.8617 43.8733C34.4294 45.2417 24.176 49.7581 23.9695 62.246C23.9605 62.8631 24.4543 63.3729 25.0738 63.3818H25.0918C25.7023 63.3818 26.2021 62.8929 26.2141 62.2818C26.4266 49.3646 38.5445 46.133 40.8759 45.6322C40.9358 45.6382 40.9956 45.6471 41.0555 45.6471C41.2261 45.6471 41.3966 45.6262 41.5672 45.5875C42.2286 45.4324 42.7464 44.9972 43.0367 44.4397C43.2731 44.1774 43.4587 43.8644 43.5515 43.4977C44.8264 38.4685 46.9453 34.9925 49.6778 33.4423C52.1708 32.0293 54.4304 32.5868 54.8583 32.712C55.3911 32.87 55.4599 33.1412 55.4838 33.2456C55.4928 33.2814 55.4958 33.3261 55.4988 33.3678C55.4509 33.8895 55.1097 34.6527 54.2328 35.5083C48.9206 40.6925 45.6884 53.9078 45.0299 56.8084L32.2356 72.2298V72.2358C31.1133 72.3849 29.7636 72.5309 28.8148 72.5309C28.755 72.5309 28.6981 72.528 28.6443 72.5309C28.0337 72.5309 27.5339 73.0198 27.5219 73.628C27.51 74.2451 28.0038 74.7549 28.6233 74.7668C28.6832 74.7668 28.743 74.7668 28.8029 74.7668C29.7905 74.7668 31.1014 74.6356 32.2356 74.4895V76.7582C32.2356 77.9924 33.2412 78.994 34.4802 78.994C35.7193 78.994 36.7249 77.9924 36.7249 76.7582V74.0781L49.187 59.0562L49.3007 58.5166C50.1686 54.4146 53.3111 42.9044 57.3753 38.9395C59.1291 37.2284 60.0449 35.2459 59.997 33.3499C60.006 32.867 59.9581 32.387 59.8414 31.919V31.9249ZM8.85575 47.8263C8.29908 47.558 7.6257 47.7935 7.35934 48.351C7.08998 48.9085 7.32642 49.5762 7.88607 49.8415C7.94892 49.8714 14.2638 52.9896 15.7003 62.4547C15.7841 63.0092 16.263 63.4057 16.8077 63.4057C16.8645 63.4057 16.9214 63.4027 16.9783 63.3938C17.5918 63.3014 18.0138 62.732 17.921 62.1208C16.3079 51.4991 9.16101 47.9694 8.85575 47.8263Z" fill="black"/>
</svg>
