<svg width="54" height="89" viewBox="0 0 54 89" fill="none" xmlns="http://www.w3.org/2000/svg">
<g clip-path="url(#clip0_1_232)">
<path d="M5.85305 89L5.88268 67.3804C7.77624 67.7007 10.6502 68.078 13.6589 68.078C14.1626 68.078 14.669 68.0671 15.1754 68.0427C15.7329 68.0183 16.1639 67.5405 16.137 66.9787C16.1127 66.4168 15.6602 65.988 15.0811 66.0097C11.5256 66.1725 7.85704 65.6595 5.7911 65.2958L4.03761 58.7081V18.0611C4.03761 16.9455 4.93725 16.0389 6.0416 16.0389C7.14595 16.0389 8.04559 16.9455 8.04559 18.0611V33.0008C8.04559 34.1245 8.95062 35.0365 10.0657 35.0365C10.1061 35.0365 10.1439 35.0256 10.187 35.0229C10.2758 35.0338 10.3647 35.0501 10.4563 35.0501C11.5714 35.0501 12.4765 34.1381 12.4765 33.0143V12.8008C12.4765 11.6716 13.3869 10.7542 14.5074 10.7542C15.6279 10.7542 16.5383 11.6716 16.5383 12.8008V33.017C16.5383 34.1408 17.4433 35.0528 18.5585 35.0528C18.615 35.0528 18.6716 35.0392 18.7255 35.0365C18.782 35.0419 18.8359 35.0528 18.8925 35.0528C20.0076 35.0528 20.9126 34.1408 20.9126 33.017V6.11809C20.9126 4.98893 21.823 4.07149 22.9435 4.07149C24.064 4.07149 24.9745 4.98893 24.9745 6.11809V33.017C24.9745 34.1408 25.8795 35.0528 26.9946 35.0528C27.0512 35.0528 27.1077 35.0392 27.1616 35.0365C27.2182 35.0419 27.272 35.0528 27.3286 35.0528C28.4437 35.0528 29.3488 34.1408 29.3488 33.017V11.5847C29.3488 10.4556 30.2592 9.53814 31.3797 9.53814C32.5002 9.53814 33.4106 10.4556 33.4106 11.5847V33.2505L34.3991 37.5093H12.9882C12.4307 37.5093 11.9782 37.9653 11.9782 38.5271C11.9782 39.089 12.4307 39.545 12.9882 39.545H34.8813L34.9756 39.9467C30.9864 41.1926 21.7584 45.3048 21.5725 56.6751C21.5644 57.237 22.0089 57.7011 22.5664 57.7093H22.5826C23.1321 57.7093 23.5819 57.2641 23.5927 56.7077C23.7839 44.9465 34.69 42.0042 36.7883 41.5482C36.8422 41.5536 36.896 41.5617 36.9499 41.5617C37.1035 41.5617 37.257 41.5427 37.4105 41.5075C38.0058 41.3663 38.4718 40.97 38.733 40.4624C38.9458 40.2236 39.1128 39.9386 39.1963 39.6047C40.3438 35.0257 42.2508 31.8607 44.71 30.4493C46.9537 29.1627 48.9873 29.6703 49.3725 29.7843C49.852 29.9281 49.9139 30.1751 49.9355 30.2702C49.9435 30.3027 49.9462 30.3434 49.9489 30.3814C49.9058 30.8564 49.5988 31.5513 48.8096 32.3303C44.0285 37.0505 41.1195 49.0831 40.5269 51.7242L29.0121 65.7654V65.7708C28.002 65.9065 26.7872 66.0395 25.9334 66.0395C25.8795 66.0395 25.8283 66.0368 25.7798 66.0395C25.2303 66.0395 24.7805 66.4847 24.7698 67.0384C24.759 67.6003 25.2034 68.0644 25.761 68.0753C25.8148 68.0753 25.8687 68.0753 25.9226 68.0753C26.8115 68.0753 27.9912 67.9558 29.0121 67.8228V88.9946H33.0524V67.4483L44.2683 53.7708L44.3706 53.2795C45.1517 49.5446 47.98 39.0646 51.6378 35.4545C53.2162 33.8965 54.0404 32.0915 53.9973 30.3652C54.0054 29.9254 53.9623 29.4884 53.8572 29.0623C53.4505 27.4093 52.233 26.1661 50.52 25.6531C49.5934 25.3762 46.2857 24.6325 42.7114 26.6845C40.5889 27.9005 38.8354 29.8386 37.4617 32.466V11.5847C37.4617 8.21083 34.7385 5.46665 31.3905 5.46665C30.5474 5.46665 29.7447 5.64037 29.0148 5.95523C28.9286 2.65732 26.2458 0 22.9516 0C19.6574 0 16.8804 2.74418 16.8804 6.11809V7.16582C16.1531 6.85367 15.3532 6.67995 14.5128 6.67995C11.2724 6.67995 8.62739 9.25313 8.4577 12.475C7.71967 12.1493 6.90353 11.9675 6.04699 11.9675C2.71239 11.9675 0 14.7008 0 18.0611V59.2456L1.85315 66.2132L1.81006 89H5.85036H5.85305ZM7.97287 43.5459C7.47187 43.3016 6.86582 43.5161 6.6261 44.0236C6.38368 44.5312 6.59647 45.1392 7.10016 45.3808C7.15672 45.4079 12.8401 48.2471 14.133 56.8651C14.2084 57.37 14.6394 57.731 15.1296 57.731C15.1808 57.731 15.2319 57.7283 15.2831 57.7201C15.8353 57.636 16.2151 57.1175 16.1316 56.5611C14.6798 46.89 8.24761 43.6762 7.97287 43.5459Z" fill="black"/>
</g>
<defs>
<clipPath id="clip0_1_232">
<rect width="54" height="89" fill="white"/>
</clipPath>
</defs>
</svg>
