<svg width="65" height="72" viewBox="0 0 65 72" fill="none" xmlns="http://www.w3.org/2000/svg">
<g clip-path="url(#clip0_1_290)">
<path d="M63.3545 72C62.4449 72 61.7088 71.2674 61.7088 70.3635V56.9949C61.7088 55.7684 61.5609 54.6442 61.2685 53.6543C60.8989 52.4014 60.682 51.0936 60.624 49.7673L59.5715 23.2208C59.5554 21.6052 58.8918 19.8618 57.7026 18.2623C56.7321 16.9607 55.3114 15.9036 53.5919 15.207L43.3007 11.0411C40.6411 9.98232 38.7272 7.65572 38.1905 4.82097L37.6617 1.93091C37.4979 1.04154 38.0908 0.189806 38.9859 0.0277674C39.8794 -0.124861 40.7359 0.455126 40.8982 1.3445L41.4254 4.22492C41.7515 5.94514 42.9134 7.36263 44.5316 8.00665L54.8341 12.1765C57.1113 13.1001 59.0187 14.5311 60.3477 16.3154C61.9484 18.4661 62.8403 20.8903 62.8611 23.1411L63.9119 49.6325C63.9586 50.6881 64.1305 51.7331 64.4262 52.7326C64.807 54.0229 65 55.4572 65 56.9952V70.3638C65 71.2674 64.2639 72.0002 63.3545 72.0002V72Z" fill="black"/>
<path d="M1.64546 71.9997C0.735827 71.9997 0 71.2671 0 70.3632V56.993C0 55.5133 0.207269 54.0408 0.615574 52.6162C0.893702 51.6485 1.05596 50.6467 1.09774 49.6368L2.15509 23.0984C2.3462 18.3228 5.34813 14.0809 9.8028 12.2912L20.4621 8.00933C22.0901 7.35659 23.2536 5.94231 23.5749 4.22622L24.1163 1.33777C24.2835 0.450002 25.1271 -0.141919 26.0367 0.02907C26.9302 0.194551 27.5183 1.04858 27.3528 1.93703L26.8113 4.82549C26.2825 7.64601 24.3702 9.971 21.6947 11.044L11.0369 15.3258C7.77789 16.6345 5.58287 19.7362 5.443 23.2278L4.38565 49.7679C4.33418 51.0392 4.13014 52.299 3.78139 53.5152C3.45686 54.6465 3.29114 55.817 3.29114 56.9933V70.3635C3.29114 71.2671 2.55508 71.9999 1.64546 71.9999V71.9997Z" fill="black"/>
<path d="M54.5466 72C53.7897 72 53.1084 71.4774 52.9396 70.7113L48.9607 52.5302C48.7677 51.6473 49.3318 50.7756 50.2191 50.5839C51.1158 50.3923 51.9836 50.9523 52.178 51.8352L56.1569 70.0163C56.3499 70.8993 55.7858 71.771 54.8985 71.9626C54.7797 71.9881 54.6624 72.0003 54.5466 72.0003V72Z" fill="black"/>
<path d="M48.4721 72C47.5625 72 46.8264 71.2674 46.8264 70.3636V66.252C46.8264 63.9876 47.0385 61.7097 47.4579 59.4806L50.4003 43.8563C50.7828 41.826 50.9771 39.7512 50.9771 37.6874V30.6642C50.9771 29.7606 51.7132 29.0278 52.6226 29.0278C53.532 29.0278 54.2682 29.7604 54.2682 30.6642V37.6874C54.2682 39.9525 54.0561 42.2304 53.6367 44.4588L50.6944 60.0831C50.3119 62.1134 50.1173 64.1891 50.1173 66.252V70.3636C50.1173 71.2672 49.3813 72 48.4719 72H48.4721Z" fill="black"/>
<path d="M10.6611 72C10.5454 72 10.4279 71.9881 10.3091 71.9624C9.42207 71.7707 8.85797 70.899 9.0507 70.0161L13.0297 51.835C13.224 50.9521 14.0935 50.3936 14.9886 50.5837C15.8756 50.7756 16.4397 51.647 16.2469 52.53L12.268 70.7111C12.0993 71.4772 11.4179 71.9998 10.6611 71.9998V72Z" fill="black"/>
<path d="M16.7353 72C15.8257 72 15.0899 71.2674 15.0899 70.3636V66.252C15.0899 64.1891 14.8955 62.1132 14.5129 60.0831L11.5721 44.4588C11.1511 42.2304 10.939 39.9525 10.939 37.6874V30.6642C10.939 29.7606 11.675 29.0278 12.5847 29.0278C13.4943 29.0278 14.2303 29.7604 14.2303 30.6642V37.6874C14.2303 39.7512 14.4247 41.8263 14.8071 43.8563L17.7495 59.4806C18.1689 61.7099 18.381 63.9876 18.381 66.252V70.3636C18.381 71.2672 17.645 72 16.7353 72Z" fill="black"/>
<path d="M32.5002 68.4246C31.5906 68.4246 30.8547 67.692 30.8547 66.7881V32.4253C30.8547 31.5217 31.5908 30.7888 32.5002 30.7888C33.4096 30.7888 34.1459 31.5214 34.1459 32.4253V66.7884C34.1459 67.692 33.4098 68.4248 32.5002 68.4248V68.4246Z" fill="black"/>
</g>
<defs>
<clipPath id="clip0_1_290">
<rect width="65" height="72" fill="white"/>
</clipPath>
</defs>
</svg>
