<svg width="62" height="56" viewBox="0 0 62 56" fill="none" xmlns="http://www.w3.org/2000/svg">
<g clip-path="url(#clip0_1_228)">
<path d="M21.1315 48.7715C20.4483 48.9417 19.8845 49.0373 19.5031 49.0886C19.1077 48.2958 18.6468 47.0506 18.4713 46.5516C18.3122 46.0946 17.8139 45.8521 17.3553 46.013C16.8968 46.1715 16.6558 46.6682 16.8149 47.1252C16.8991 47.3701 17.6665 49.5549 18.2865 50.5016C18.4503 50.7488 18.7264 50.898 19.0211 50.898C19.0375 50.898 19.0539 50.898 19.0703 50.898C19.1124 50.8957 20.095 50.8374 21.555 50.4737C22.0252 50.3571 22.3107 49.8814 22.1937 49.4127C22.0767 48.944 21.5994 48.6595 21.1291 48.7761L21.1315 48.7715ZM19.7815 15.8467C23.0336 21.0793 27.3011 28.7578 26.8027 35.0046C26.7255 35.9677 27.4461 36.8094 28.4124 36.8864C28.4592 36.891 28.506 36.8911 28.5528 36.8911C29.4582 36.8911 30.2279 36.1962 30.3005 35.2798C30.4174 33.8201 30.3285 32.3301 30.0899 30.8284C31.978 29.989 37.0362 27.3727 42.4104 21.457C48.4021 14.8627 55.4116 12.8387 55.4818 12.8201C56.413 12.5613 56.9605 11.5982 56.7008 10.6679C56.4434 9.73748 55.4725 9.19185 54.5413 9.45067C54.2161 9.53928 46.514 11.7312 39.8087 19.1112C35.4008 23.9613 31.2199 26.3841 29.2734 27.3424C27.8392 22.6019 25.2024 17.929 22.7645 14.0046C19.3674 8.53895 17.9028 1.47133 17.8888 1.40137C17.6969 0.454671 16.7728 -0.158587 15.8205 0.0349508C14.8707 0.226157 14.2577 1.14721 14.4495 2.09391C14.5127 2.4087 16.0451 9.83542 19.7815 15.8467ZM61.745 36.0912C61.2443 35.2658 60.1657 35 59.3352 35.5013C51.0225 40.5146 41.2897 45.2994 32.626 48.6246C23.787 52.0196 18.972 52.7681 17.9379 52.4533C16.478 51.2944 14.0728 45.3601 12.655 40.4377L12.6223 40.3351C10.0814 33.1905 3.53284 4.54694 3.46499 4.2578C3.24975 3.31576 2.30922 2.72349 1.36635 2.94035C0.421144 3.15487 -0.17078 4.09225 0.0444651 5.03429C0.313522 6.21883 6.67496 34.0393 9.30001 41.4543C9.8896 43.497 12.7954 53.0759 15.9539 55.3378C16.2744 55.5686 16.878 56 18.5719 56C20.8367 56 25.055 55.2282 33.1595 52.1689C42.1998 48.7575 52.4052 43.7721 61.1577 38.493C61.986 37.994 62.2527 36.9167 61.7497 36.0912H61.745Z" fill="black"/>
</g>
<defs>
<clipPath id="clip0_1_228">
<rect width="62" height="56" fill="white"/>
</clipPath>
</defs>
</svg>
