<svg width="25" height="25" viewBox="0 0 25 25" fill="none" xmlns="http://www.w3.org/2000/svg">
<path d="M24.44 12.47C24.44 19.08 19.08 24.44 12.47 24.44C5.86 24.44 0.5 19.08 0.5 12.47C0.5 5.86 5.86 0.5 12.47 0.5C19.08 0.5 24.44 5.86 24.44 12.47Z" fill="white"/>
<path d="M14.0428 16.6286L9.88281 12.4686L14.0428 8.30859" fill="white"/>
<path d="M24.44 12.47C24.44 19.08 19.08 24.44 12.47 24.44C5.86 24.44 0.5 19.08 0.5 12.47C0.5 5.86 5.86 0.5 12.47 0.5C19.08 0.5 24.44 5.86 24.44 12.47Z" stroke="#272525" stroke-miterlimit="10"/>
<path d="M14.0428 16.6286L9.88281 12.4686L14.0428 8.30859" stroke="#272525" stroke-width="2" stroke-miterlimit="10"/>
</svg>
